M48
; DRILL file {KiCad (6.0.1)} date Mon Aug 22 12:04:32 2022
; FORMAT={-:-/ absolute / metric / decimal}
; #@! TF.CreationDate,2022-08-22T12:04:32+03:00
; #@! TF.GenerationSoftware,Kicad,Pcbnew,(6.0.1)
; #@! TF.FileFunction,Plated,1,2,PTH
FMAT,2
METRIC
; #@! TA.AperFunction,Plated,PTH,ViaDrill
T1C0.400
; #@! TA.AperFunction,Plated,PTH,ComponentDrill
T2C0.750
; #@! TA.AperFunction,Plated,PTH,ComponentDrill
T3C0.762
; #@! TA.AperFunction,Plated,PTH,ComponentDrill
T4C0.800
; #@! TA.AperFunction,Plated,PTH,ComponentDrill
T5C0.900
; #@! TA.AperFunction,Plated,PTH,ComponentDrill
T6C1.000
; #@! TA.AperFunction,Plated,PTH,ComponentDrill
T7C1.075
; #@! TA.AperFunction,Plated,PTH,ComponentDrill
T8C1.100
; #@! TA.AperFunction,Plated,PTH,ComponentDrill
T9C1.400
%
G90
G05
T1
X57.8Y-73.49
X57.8Y-74.89
X57.8Y-76.29
X57.8Y-77.69
X57.8Y-79.19
X83.425Y-78.675
X85.6Y-78.69
X87.925Y-78.675
X116.125Y-55.375
X116.125Y-57.775
X116.125Y-59.975
X116.125Y-62.175
X130.325Y-99.775
X137.625Y-99.775
X145.325Y-99.775
X152.725Y-99.775
X153.4Y-80.29
X153.4Y-82.59
X153.4Y-84.89
X165.625Y-97.675
X165.625Y-99.975
X165.625Y-102.275
X177.625Y-99.275
X185.225Y-99.375
X192.725Y-99.375
X200.625Y-99.29
X216.0Y-108.09
X216.0Y-110.39
X216.0Y-112.69
T2
X159.45Y-56.59
X159.45Y-57.86
X159.45Y-59.13
T3
X68.335Y-73.435
X70.875Y-73.435
X73.415Y-73.435
X75.955Y-73.435
T4
X84.478Y-96.525
X87.978Y-96.525
X89.5Y-104.69
X93.0Y-104.69
X100.1Y-107.78
X100.1Y-110.32
X100.1Y-112.86
X100.1Y-115.4
T5
X71.25Y-65.75
X71.25Y-68.29
X88.675Y-65.685
X88.675Y-68.225
X96.3Y-86.89
X96.3Y-97.4
X96.325Y-79.49
X98.84Y-86.89
X98.84Y-97.4
X98.865Y-79.49
X106.1Y-66.06
X106.1Y-68.6
X111.925Y-97.29
X114.465Y-97.29
X132.8Y-66.385
X132.8Y-68.925
X150.775Y-66.235
X150.775Y-68.775
X178.8Y-66.41
X178.8Y-68.95
X196.825Y-66.385
X196.825Y-68.925
X213.95Y-66.45
X213.95Y-68.99
T6
X67.075Y-113.435
X72.155Y-113.435
X77.235Y-113.435
T7
X116.0Y-105.47
X116.0Y-108.01
X116.0Y-110.55
X116.0Y-113.09
T8
X67.845Y-52.775
X70.385Y-52.775
X72.925Y-52.775
X85.445Y-52.675
X87.985Y-52.675
X90.525Y-52.675
X103.045Y-52.675
X105.585Y-52.675
X108.125Y-52.675
X125.92Y-52.69
X128.46Y-52.69
X131.0Y-52.69
X142.92Y-52.69
X145.46Y-52.69
X148.0Y-52.69
X148.33Y-74.97
X148.33Y-90.21
X150.87Y-74.97
X150.87Y-90.21
X153.41Y-74.97
X153.41Y-90.21
X155.95Y-74.97
X155.95Y-90.21
X158.49Y-74.97
X158.49Y-90.21
X161.03Y-74.97
X161.03Y-90.21
X163.57Y-74.97
X163.57Y-90.21
X166.11Y-74.97
X166.11Y-90.21
X168.65Y-74.97
X168.65Y-90.21
X171.12Y-52.69
X171.19Y-74.97
X171.19Y-90.21
X173.66Y-52.69
X173.73Y-74.97
X173.73Y-90.21
X176.2Y-52.69
X176.27Y-74.97
X176.27Y-90.21
X188.42Y-52.69
X190.96Y-52.69
X193.5Y-52.69
X205.42Y-52.69
X207.96Y-52.69
X208.95Y-79.79
X208.95Y-86.29
X208.95Y-91.59
X208.95Y-98.09
X210.5Y-52.69
X213.45Y-79.79
X213.45Y-86.29
X213.45Y-91.59
X213.45Y-98.09
T9
X67.2Y-124.39
X67.845Y-43.175
X72.28Y-124.39
X72.925Y-43.175
X77.36Y-124.39
X82.845Y-43.275
X87.925Y-43.275
X92.2Y-124.39
X97.28Y-124.39
X97.92Y-43.29
X103.0Y-43.29
X119.5Y-124.39
X124.58Y-124.39
X125.92Y-43.3
X129.66Y-124.39
X131.0Y-43.3
X134.74Y-124.39
X139.82Y-124.39
X142.92Y-43.267
X144.9Y-124.39
X148.0Y-43.267
X149.98Y-124.39
X155.06Y-124.39
X171.12Y-43.29
X171.6Y-124.39
X176.2Y-43.29
X176.68Y-124.39
X181.76Y-124.39
X186.145Y-43.275
X186.84Y-124.39
X191.225Y-43.275
X191.92Y-124.39
X197.0Y-124.39
X201.145Y-43.275
X202.08Y-124.39
X206.225Y-43.275
X207.16Y-124.39
T0
M30
