%TF.GenerationSoftware,KiCad,Pcbnew,(6.0.1)*%
%TF.CreationDate,2022-08-22T12:09:38+03:00*%
%TF.ProjectId,lh-dimmer,6c682d64-696d-46d6-9572-2e6b69636164,rev?*%
%TF.SameCoordinates,Original*%
%TF.FileFunction,Soldermask,Top*%
%TF.FilePolarity,Negative*%
%FSLAX46Y46*%
G04 Gerber Fmt 4.6, Leading zero omitted, Abs format (unit mm)*
G04 Created by KiCad (PCBNEW (6.0.1)) date 2022-08-22 12:09:38*
%MOMM*%
%LPD*%
G01*
G04 APERTURE LIST*
G04 Aperture macros list*
%AMRoundRect*
0 Rectangle with rounded corners*
0 $1 Rounding radius*
0 $2 $3 $4 $5 $6 $7 $8 $9 X,Y pos of 4 corners*
0 Add a 4 corners polygon primitive as box body*
4,1,4,$2,$3,$4,$5,$6,$7,$8,$9,$2,$3,0*
0 Add four circle primitives for the rounded corners*
1,1,$1+$1,$2,$3*
1,1,$1+$1,$4,$5*
1,1,$1+$1,$6,$7*
1,1,$1+$1,$8,$9*
0 Add four rect primitives between the rounded corners*
20,1,$1+$1,$2,$3,$4,$5,0*
20,1,$1+$1,$4,$5,$6,$7,0*
20,1,$1+$1,$6,$7,$8,$9,0*
20,1,$1+$1,$8,$9,$2,$3,0*%
%AMFreePoly0*
4,1,37,0.217060,1.231010,0.427525,1.174616,0.625000,1.082532,0.803485,0.957556,0.957556,0.803485,1.082532,0.625000,1.174616,0.427525,1.231010,0.217060,1.250000,0.000000,1.231010,-0.217060,1.174616,-0.427525,1.082532,-0.625000,0.957556,-0.803485,0.803485,-0.957556,0.625000,-1.082532,0.427525,-1.174616,0.217060,-1.231010,0.000000,-1.250000,-0.217060,-1.231010,-0.427525,-1.174616,
-0.625000,-1.082532,-0.803485,-0.957556,-0.957556,-0.803485,-1.082532,-0.625000,-1.174616,-0.427525,-1.231010,-0.217060,-1.250000,0.000000,-1.231010,0.217060,-1.174616,0.427525,-1.082532,0.625000,-0.957556,0.803485,-0.803485,0.957556,-0.625000,1.082532,-0.427525,1.174616,-0.217060,1.231010,0.000000,1.250000,0.217060,1.231010,0.217060,1.231010,$1*%
G04 Aperture macros list end*
%ADD10C,0.150000*%
%ADD11R,1.800000X1.800000*%
%ADD12C,1.800000*%
%ADD13RoundRect,0.250000X-0.650000X0.412500X-0.650000X-0.412500X0.650000X-0.412500X0.650000X0.412500X0*%
%ADD14R,1.600000X1.600000*%
%ADD15C,1.600000*%
%ADD16C,8.400000*%
%ADD17RoundRect,0.249999X0.790001X1.550001X-0.790001X1.550001X-0.790001X-1.550001X0.790001X-1.550001X0*%
%ADD18O,2.080000X3.600000*%
%ADD19RoundRect,0.250000X0.350000X0.450000X-0.350000X0.450000X-0.350000X-0.450000X0.350000X-0.450000X0*%
%ADD20RoundRect,0.249999X-0.790001X-1.550001X0.790001X-1.550001X0.790001X1.550001X-0.790001X1.550001X0*%
%ADD21R,1.780000X2.000000*%
%ADD22C,3.500000*%
%ADD23C,1.200000*%
%ADD24R,1.905000X2.000000*%
%ADD25O,1.905000X2.000000*%
%ADD26R,2.250000X1.750000*%
%ADD27O,2.250000X1.750000*%
%ADD28R,1.800000X2.500000*%
%ADD29R,1.500000X1.050000*%
%ADD30O,1.500000X1.050000*%
%ADD31C,2.000000*%
%ADD32RoundRect,0.450000X0.550000X-0.450000X0.550000X0.450000X-0.550000X0.450000X-0.550000X-0.450000X0*%
%ADD33O,2.000000X1.800000*%
%ADD34C,1.524000*%
%ADD35FreePoly0,90.000000*%
G04 APERTURE END LIST*
D10*
X211550000Y-36675000D02*
X211550000Y-36675000D01*
X211550000Y-36675000D02*
X211550000Y-36675000D01*
X211550000Y-36675000D02*
X211550000Y-36675000D01*
X211550000Y-36675000D02*
X211550000Y-36675000D01*
D11*
%TO.C,D5*%
X96300000Y-97400000D03*
D12*
X98840000Y-97400000D03*
%TD*%
D13*
%TO.C,C3*%
X121125000Y-105400000D03*
X121125000Y-108525000D03*
%TD*%
D14*
%TO.C,C2*%
X87977651Y-96525000D03*
D15*
X84477651Y-96525000D03*
%TD*%
D16*
%TO.C,*%
X56750000Y-125550000D03*
%TD*%
D17*
%TO.C,J9*%
X191225000Y-43275000D03*
D18*
X186145000Y-43275000D03*
%TD*%
D17*
%TO.C,J6*%
X131000000Y-43300000D03*
D18*
X125920000Y-43300000D03*
%TD*%
D19*
%TO.C,R41*%
X130225000Y-95375000D03*
X128225000Y-95375000D03*
%TD*%
D20*
%TO.C,J2*%
X67200000Y-124390000D03*
D18*
X72280000Y-124390000D03*
X77360000Y-124390000D03*
%TD*%
D21*
%TO.C,U12*%
X198253493Y-113273969D03*
X200793493Y-113273969D03*
X200793493Y-103743969D03*
X198253493Y-103743969D03*
%TD*%
D22*
%TO.C,*%
X163500000Y-125550000D03*
%TD*%
D19*
%TO.C,R42*%
X160725000Y-104975000D03*
X158725000Y-104975000D03*
%TD*%
D23*
%TO.C,HS5*%
X145415000Y-57717500D03*
%TD*%
D11*
%TO.C,D27*%
X213950000Y-68990000D03*
D12*
X213950000Y-66450000D03*
%TD*%
D19*
%TO.C,R45*%
X145325000Y-95975000D03*
X143325000Y-95975000D03*
%TD*%
%TO.C,R44*%
X160725000Y-108275000D03*
X158725000Y-108275000D03*
%TD*%
%TO.C,R52*%
X209125000Y-106575000D03*
X207125000Y-106575000D03*
%TD*%
D21*
%TO.C,U11*%
X190696825Y-113273969D03*
X193236825Y-113273969D03*
X193236825Y-103743969D03*
X190696825Y-103743969D03*
%TD*%
D22*
%TO.C,*%
X163500000Y-42100000D03*
%TD*%
D24*
%TO.C,Q1*%
X72925000Y-52775000D03*
D25*
X70385000Y-52775000D03*
X67845000Y-52775000D03*
%TD*%
D14*
%TO.C,C1*%
X93000000Y-104690000D03*
D15*
X89500000Y-104690000D03*
%TD*%
D20*
%TO.C,J1*%
X92200000Y-124390000D03*
D18*
X97280000Y-124390000D03*
%TD*%
D11*
%TO.C,D20*%
X71250000Y-68290000D03*
D12*
X71250000Y-65750000D03*
%TD*%
D19*
%TO.C,R47*%
X152725000Y-96575000D03*
X150725000Y-96575000D03*
%TD*%
D11*
%TO.C,D4*%
X96325000Y-79490000D03*
D12*
X98865000Y-79490000D03*
%TD*%
D21*
%TO.C,U5*%
X127955000Y-113440000D03*
X130495000Y-113440000D03*
X130495000Y-103910000D03*
X127955000Y-103910000D03*
%TD*%
D11*
%TO.C,D3*%
X96300000Y-86890000D03*
D12*
X98840000Y-86890000D03*
%TD*%
D26*
%TO.C,PS1*%
X116000000Y-113090000D03*
D27*
X116000000Y-110550000D03*
X116000000Y-108010000D03*
X116000000Y-105470000D03*
%TD*%
D17*
%TO.C,J3*%
X72925000Y-43175000D03*
D18*
X67845000Y-43175000D03*
%TD*%
D22*
%TO.C,*%
X110500000Y-42100000D03*
%TD*%
D21*
%TO.C,U6*%
X135555000Y-113440000D03*
X138095000Y-113440000D03*
X138095000Y-103910000D03*
X135555000Y-103910000D03*
%TD*%
D23*
%TO.C,HS3*%
X105450000Y-57717500D03*
%TD*%
%TO.C,HS8*%
X207915000Y-57717500D03*
%TD*%
D21*
%TO.C,U8*%
X150755000Y-113440000D03*
X153295000Y-113440000D03*
X153295000Y-103910000D03*
X150755000Y-103910000D03*
%TD*%
D24*
%TO.C,Q5*%
X148000000Y-52690000D03*
D25*
X145460000Y-52690000D03*
X142920000Y-52690000D03*
%TD*%
D11*
%TO.C,D21*%
X88675000Y-68225000D03*
D12*
X88675000Y-65685000D03*
%TD*%
D16*
%TO.C,REF\u002A\u002A*%
X56750000Y-42100000D03*
%TD*%
D21*
%TO.C,U7*%
X143155000Y-113440000D03*
X145695000Y-113440000D03*
X145695000Y-103910000D03*
X143155000Y-103910000D03*
%TD*%
D28*
%TO.C,D1*%
X92300000Y-111900000D03*
X92300000Y-115900000D03*
%TD*%
D24*
%TO.C,Q3*%
X108125000Y-52675000D03*
D25*
X105585000Y-52675000D03*
X103045000Y-52675000D03*
%TD*%
D11*
%TO.C,D24*%
X150775000Y-68775000D03*
D12*
X150775000Y-66235000D03*
%TD*%
D19*
%TO.C,R56*%
X209225000Y-113590000D03*
X207225000Y-113590000D03*
%TD*%
%TO.C,R48*%
X160725000Y-114775000D03*
X158725000Y-114775000D03*
%TD*%
D22*
%TO.C,*%
X110500000Y-125550000D03*
%TD*%
D17*
%TO.C,J4*%
X87925000Y-43275000D03*
D18*
X82845000Y-43275000D03*
%TD*%
D17*
%TO.C,J5*%
X103000000Y-43290000D03*
D18*
X97920000Y-43290000D03*
%TD*%
D24*
%TO.C,Q4*%
X131000000Y-52690000D03*
D25*
X128460000Y-52690000D03*
X125920000Y-52690000D03*
%TD*%
D24*
%TO.C,Q7*%
X193500000Y-52690000D03*
D25*
X190960000Y-52690000D03*
X188420000Y-52690000D03*
%TD*%
D11*
%TO.C,D23*%
X132800000Y-68925000D03*
D12*
X132800000Y-66385000D03*
%TD*%
D24*
%TO.C,Q2*%
X90525000Y-52675000D03*
D25*
X87985000Y-52675000D03*
X85445000Y-52675000D03*
%TD*%
D11*
%TO.C,D25*%
X178800000Y-68950000D03*
D12*
X178800000Y-66410000D03*
%TD*%
D11*
%TO.C,D26*%
X196825000Y-68925000D03*
D12*
X196825000Y-66385000D03*
%TD*%
D24*
%TO.C,Q8*%
X210500000Y-52690000D03*
D25*
X207960000Y-52690000D03*
X205420000Y-52690000D03*
%TD*%
D11*
%TO.C,D22*%
X106100000Y-68600000D03*
D12*
X106100000Y-66060000D03*
%TD*%
D11*
%TO.C,D2*%
X111925000Y-97290000D03*
D12*
X114465000Y-97290000D03*
%TD*%
D29*
%TO.C,U20*%
X159450000Y-56590000D03*
D30*
X159450000Y-57860000D03*
X159450000Y-59130000D03*
%TD*%
D23*
%TO.C,HS4*%
X128415000Y-57717500D03*
%TD*%
D17*
%TO.C,J7*%
X148000000Y-43267500D03*
D18*
X142920000Y-43267500D03*
%TD*%
D16*
%TO.C,REF\u002A\u002A*%
X217250000Y-42100000D03*
%TD*%
D31*
%TO.C,SW2*%
X208950000Y-91590000D03*
X208950000Y-98090000D03*
X213450000Y-98090000D03*
X213450000Y-91590000D03*
%TD*%
D17*
%TO.C,J10*%
X206225000Y-43275000D03*
D18*
X201145000Y-43275000D03*
%TD*%
D23*
%TO.C,HS7*%
X190815000Y-57717500D03*
%TD*%
D19*
%TO.C,R43*%
X137625000Y-95575000D03*
X135625000Y-95575000D03*
%TD*%
D20*
%TO.C,J11*%
X171600000Y-124390000D03*
D18*
X176680000Y-124390000D03*
X181760000Y-124390000D03*
X186840000Y-124390000D03*
X191920000Y-124390000D03*
X197000000Y-124390000D03*
X202080000Y-124390000D03*
X207160000Y-124390000D03*
%TD*%
D23*
%TO.C,HS2*%
X88050000Y-57717500D03*
%TD*%
D21*
%TO.C,U10*%
X183140159Y-113273969D03*
X185680159Y-113273969D03*
X185680159Y-103743969D03*
X183140159Y-103743969D03*
%TD*%
D23*
%TO.C,HS6*%
X173615000Y-57717500D03*
%TD*%
D24*
%TO.C,Q6*%
X176200000Y-52690000D03*
D25*
X173660000Y-52690000D03*
X171120000Y-52690000D03*
%TD*%
D19*
%TO.C,R50*%
X209125000Y-103190000D03*
X207125000Y-103190000D03*
%TD*%
D17*
%TO.C,J8*%
X176200000Y-43290000D03*
D18*
X171120000Y-43290000D03*
%TD*%
D19*
%TO.C,R55*%
X200525000Y-96275000D03*
X198525000Y-96275000D03*
%TD*%
%TO.C,R53*%
X192725000Y-96190000D03*
X190725000Y-96190000D03*
%TD*%
%TO.C,R54*%
X209225000Y-110075000D03*
X207225000Y-110075000D03*
%TD*%
%TO.C,R46*%
X160725000Y-111475000D03*
X158725000Y-111475000D03*
%TD*%
%TO.C,R49*%
X177625000Y-96575000D03*
X175625000Y-96575000D03*
%TD*%
D21*
%TO.C,U9*%
X175583493Y-113273969D03*
X178123493Y-113273969D03*
X178123493Y-103743969D03*
X175583493Y-103743969D03*
%TD*%
D16*
%TO.C,REF\u002A\u002A*%
X217250000Y-125550000D03*
%TD*%
D20*
%TO.C,J12*%
X119500000Y-124390000D03*
D18*
X124580000Y-124390000D03*
X129660000Y-124390000D03*
X134740000Y-124390000D03*
X139820000Y-124390000D03*
X144900000Y-124390000D03*
X149980000Y-124390000D03*
X155060000Y-124390000D03*
%TD*%
D31*
%TO.C,SW1*%
X208950000Y-79790000D03*
X208950000Y-86290000D03*
X213450000Y-79790000D03*
X213450000Y-86290000D03*
%TD*%
D32*
%TO.C,U3*%
X100100000Y-115400000D03*
D33*
X100100000Y-112860000D03*
X100100000Y-110320000D03*
X100100000Y-107780000D03*
%TD*%
D34*
%TO.C,U1*%
X75955000Y-73435000D03*
X73415000Y-73435000D03*
X70875000Y-73435000D03*
X68335000Y-73435000D03*
D35*
X77235000Y-113435000D03*
X72155000Y-113435000D03*
X67075000Y-113435000D03*
%TD*%
D23*
%TO.C,HS1*%
X70250000Y-57762500D03*
%TD*%
D11*
%TO.C,U2*%
X148330000Y-90210000D03*
D12*
X150870000Y-90210000D03*
X153410000Y-90210000D03*
X155950000Y-90210000D03*
X158490000Y-90210000D03*
X161030000Y-90210000D03*
X163570000Y-90210000D03*
X166110000Y-90210000D03*
X168650000Y-90210000D03*
X171190000Y-90210000D03*
X173730000Y-90210000D03*
X176270000Y-90210000D03*
X176270000Y-74970000D03*
X173730000Y-74970000D03*
X171190000Y-74970000D03*
X168650000Y-74970000D03*
X166110000Y-74970000D03*
X163570000Y-74970000D03*
X161030000Y-74970000D03*
X158490000Y-74970000D03*
X155950000Y-74970000D03*
X153410000Y-74970000D03*
X150870000Y-74970000D03*
X148330000Y-74970000D03*
%TD*%
D19*
%TO.C,R51*%
X185325000Y-96475000D03*
X183325000Y-96475000D03*
%TD*%
M02*
