%TF.GenerationSoftware,KiCad,Pcbnew,(6.0.1)*%
%TF.CreationDate,2022-08-22T12:04:23+03:00*%
%TF.ProjectId,lh-dimmer,6c682d64-696d-46d6-9572-2e6b69636164,rev?*%
%TF.SameCoordinates,Original*%
%TF.FileFunction,Legend,Bot*%
%TF.FilePolarity,Positive*%
%FSLAX46Y46*%
G04 Gerber Fmt 4.6, Leading zero omitted, Abs format (unit mm)*
G04 Created by KiCad (PCBNEW (6.0.1)) date 2022-08-22 12:04:23*
%MOMM*%
%LPD*%
G01*
G04 APERTURE LIST*
G04 Aperture macros list*
%AMRoundRect*
0 Rectangle with rounded corners*
0 $1 Rounding radius*
0 $2 $3 $4 $5 $6 $7 $8 $9 X,Y pos of 4 corners*
0 Add a 4 corners polygon primitive as box body*
4,1,4,$2,$3,$4,$5,$6,$7,$8,$9,$2,$3,0*
0 Add four circle primitives for the rounded corners*
1,1,$1+$1,$2,$3*
1,1,$1+$1,$4,$5*
1,1,$1+$1,$6,$7*
1,1,$1+$1,$8,$9*
0 Add four rect primitives between the rounded corners*
20,1,$1+$1,$2,$3,$4,$5,0*
20,1,$1+$1,$4,$5,$6,$7,0*
20,1,$1+$1,$6,$7,$8,$9,0*
20,1,$1+$1,$8,$9,$2,$3,0*%
%AMFreePoly0*
4,1,37,0.217060,1.231010,0.427525,1.174616,0.625000,1.082532,0.803485,0.957556,0.957556,0.803485,1.082532,0.625000,1.174616,0.427525,1.231010,0.217060,1.250000,0.000000,1.231010,-0.217060,1.174616,-0.427525,1.082532,-0.625000,0.957556,-0.803485,0.803485,-0.957556,0.625000,-1.082532,0.427525,-1.174616,0.217060,-1.231010,0.000000,-1.250000,-0.217060,-1.231010,-0.427525,-1.174616,
-0.625000,-1.082532,-0.803485,-0.957556,-0.957556,-0.803485,-1.082532,-0.625000,-1.174616,-0.427525,-1.231010,-0.217060,-1.250000,0.000000,-1.231010,0.217060,-1.174616,0.427525,-1.082532,0.625000,-0.957556,0.803485,-0.803485,0.957556,-0.625000,1.082532,-0.427525,1.174616,-0.217060,1.231010,0.000000,1.250000,0.217060,1.231010,0.217060,1.231010,$1*%
G04 Aperture macros list end*
%ADD10C,0.150000*%
%ADD11C,0.200000*%
%ADD12C,0.120000*%
%ADD13R,1.800000X1.800000*%
%ADD14C,1.800000*%
%ADD15R,1.600000X1.600000*%
%ADD16C,1.600000*%
%ADD17C,8.400000*%
%ADD18RoundRect,0.249999X0.790001X1.550001X-0.790001X1.550001X-0.790001X-1.550001X0.790001X-1.550001X0*%
%ADD19O,2.080000X3.600000*%
%ADD20RoundRect,0.249999X-0.790001X-1.550001X0.790001X-1.550001X0.790001X1.550001X-0.790001X1.550001X0*%
%ADD21C,3.500000*%
%ADD22C,1.200000*%
%ADD23R,1.905000X2.000000*%
%ADD24O,1.905000X2.000000*%
%ADD25R,2.250000X1.750000*%
%ADD26O,2.250000X1.750000*%
%ADD27R,1.500000X1.050000*%
%ADD28O,1.500000X1.050000*%
%ADD29C,2.000000*%
%ADD30RoundRect,0.450000X0.550000X-0.450000X0.550000X0.450000X-0.550000X0.450000X-0.550000X-0.450000X0*%
%ADD31O,2.000000X1.800000*%
%ADD32C,1.524000*%
%ADD33FreePoly0,90.000000*%
%ADD34RoundRect,0.250000X-0.350000X-0.450000X0.350000X-0.450000X0.350000X0.450000X-0.350000X0.450000X0*%
%ADD35RoundRect,0.250000X-0.450000X0.350000X-0.450000X-0.350000X0.450000X-0.350000X0.450000X0.350000X0*%
%ADD36RoundRect,0.250000X0.450000X-0.350000X0.450000X0.350000X-0.450000X0.350000X-0.450000X-0.350000X0*%
%ADD37RoundRect,0.100000X-0.100000X0.637500X-0.100000X-0.637500X0.100000X-0.637500X0.100000X0.637500X0*%
%ADD38RoundRect,0.250000X-0.650000X0.412500X-0.650000X-0.412500X0.650000X-0.412500X0.650000X0.412500X0*%
G04 APERTURE END LIST*
D10*
X190100000Y-121090000D02*
X190100000Y-119090000D01*
X146600000Y-119090000D02*
X146600000Y-121090000D01*
X190100000Y-119090000D02*
X199100000Y-119090000D01*
X169600000Y-119090000D02*
X178600000Y-119090000D01*
X136200000Y-119090000D02*
X136200000Y-121090000D01*
X156800000Y-119090000D02*
X156800000Y-121090000D01*
X188600000Y-119090000D02*
X188600000Y-121090000D01*
X179600000Y-119090000D02*
X188600000Y-119090000D01*
X169600000Y-121090000D02*
X169600000Y-119090000D01*
X199100000Y-119090000D02*
X199100000Y-121090000D01*
X127200000Y-121090000D02*
X127200000Y-119090000D01*
X178600000Y-119090000D02*
X178600000Y-121090000D01*
X126200000Y-119090000D02*
X126200000Y-121090000D01*
X209200000Y-119090000D02*
X209200000Y-121090000D01*
X90200000Y-118490000D02*
X99200000Y-118490000D01*
X200200000Y-119090000D02*
X209200000Y-119090000D01*
X179600000Y-121090000D02*
X179600000Y-119090000D01*
X90200000Y-120490000D02*
X90200000Y-118490000D01*
X147800000Y-121090000D02*
X147800000Y-119090000D01*
X117200000Y-121090000D02*
X117200000Y-119090000D01*
X117200000Y-119090000D02*
X126200000Y-119090000D01*
X79400000Y-118490000D02*
X79400000Y-120490000D01*
X137600000Y-121090000D02*
X137600000Y-119090000D01*
X127200000Y-119090000D02*
X136200000Y-119090000D01*
X65400000Y-118490000D02*
X79400000Y-118490000D01*
X147800000Y-119090000D02*
X156800000Y-119090000D01*
X200200000Y-121090000D02*
X200200000Y-119090000D01*
X65400000Y-120490000D02*
X65400000Y-118490000D01*
X99200000Y-118490000D02*
X99200000Y-120490000D01*
X137600000Y-119090000D02*
X146600000Y-119090000D01*
X153509523Y-118018571D02*
X153366666Y-118066190D01*
X153319047Y-118113809D01*
X153271428Y-118209047D01*
X153271428Y-118351904D01*
X153319047Y-118447142D01*
X153366666Y-118494761D01*
X153461904Y-118542380D01*
X153842857Y-118542380D01*
X153842857Y-117542380D01*
X153509523Y-117542380D01*
X153414285Y-117590000D01*
X153366666Y-117637619D01*
X153319047Y-117732857D01*
X153319047Y-117828095D01*
X153366666Y-117923333D01*
X153414285Y-117970952D01*
X153509523Y-118018571D01*
X153842857Y-118018571D01*
X152842857Y-117542380D02*
X152842857Y-118351904D01*
X152795238Y-118447142D01*
X152747619Y-118494761D01*
X152652380Y-118542380D01*
X152461904Y-118542380D01*
X152366666Y-118494761D01*
X152319047Y-118447142D01*
X152271428Y-118351904D01*
X152271428Y-117542380D01*
X151938095Y-117542380D02*
X151366666Y-117542380D01*
X151652380Y-118542380D02*
X151652380Y-117542380D01*
X150604761Y-117875714D02*
X150604761Y-118542380D01*
X150842857Y-117494761D02*
X151080952Y-118209047D01*
X150461904Y-118209047D01*
X207552380Y-120542380D02*
X207552380Y-119542380D01*
X207076190Y-119875714D02*
X207076190Y-120542380D01*
X207076190Y-119970952D02*
X207028571Y-119923333D01*
X206933333Y-119875714D01*
X206790476Y-119875714D01*
X206695238Y-119923333D01*
X206647619Y-120018571D01*
X206647619Y-120542380D01*
X206028571Y-119970952D02*
X206123809Y-119923333D01*
X206171428Y-119875714D01*
X206219047Y-119780476D01*
X206219047Y-119732857D01*
X206171428Y-119637619D01*
X206123809Y-119590000D01*
X206028571Y-119542380D01*
X205838095Y-119542380D01*
X205742857Y-119590000D01*
X205695238Y-119637619D01*
X205647619Y-119732857D01*
X205647619Y-119780476D01*
X205695238Y-119875714D01*
X205742857Y-119923333D01*
X205838095Y-119970952D01*
X206028571Y-119970952D01*
X206123809Y-120018571D01*
X206171428Y-120066190D01*
X206219047Y-120161428D01*
X206219047Y-120351904D01*
X206171428Y-120447142D01*
X206123809Y-120494761D01*
X206028571Y-120542380D01*
X205838095Y-120542380D01*
X205742857Y-120494761D01*
X205695238Y-120447142D01*
X205647619Y-120351904D01*
X205647619Y-120161428D01*
X205695238Y-120066190D01*
X205742857Y-120018571D01*
X205838095Y-119970952D01*
X201647619Y-119590000D02*
X201742857Y-119542380D01*
X201885714Y-119542380D01*
X202028571Y-119590000D01*
X202123809Y-119685238D01*
X202171428Y-119780476D01*
X202219047Y-119970952D01*
X202219047Y-120113809D01*
X202171428Y-120304285D01*
X202123809Y-120399523D01*
X202028571Y-120494761D01*
X201885714Y-120542380D01*
X201790476Y-120542380D01*
X201647619Y-120494761D01*
X201600000Y-120447142D01*
X201600000Y-120113809D01*
X201790476Y-120113809D01*
X197452380Y-120542380D02*
X197452380Y-119542380D01*
X196976190Y-119875714D02*
X196976190Y-120542380D01*
X196976190Y-119970952D02*
X196928571Y-119923333D01*
X196833333Y-119875714D01*
X196690476Y-119875714D01*
X196595238Y-119923333D01*
X196547619Y-120018571D01*
X196547619Y-120542380D01*
X196166666Y-119542380D02*
X195500000Y-119542380D01*
X195928571Y-120542380D01*
X191547619Y-119590000D02*
X191642857Y-119542380D01*
X191785714Y-119542380D01*
X191928571Y-119590000D01*
X192023809Y-119685238D01*
X192071428Y-119780476D01*
X192119047Y-119970952D01*
X192119047Y-120113809D01*
X192071428Y-120304285D01*
X192023809Y-120399523D01*
X191928571Y-120494761D01*
X191785714Y-120542380D01*
X191690476Y-120542380D01*
X191547619Y-120494761D01*
X191500000Y-120447142D01*
X191500000Y-120113809D01*
X191690476Y-120113809D01*
X97822334Y-110054600D02*
X97822334Y-110864124D01*
X97869953Y-110959362D01*
X97917572Y-111006981D01*
X98012810Y-111054600D01*
X98155667Y-111054600D01*
X98250905Y-111006981D01*
X97822334Y-110673647D02*
X97917572Y-110721266D01*
X98108048Y-110721266D01*
X98203286Y-110673647D01*
X98250905Y-110626028D01*
X98298524Y-110530790D01*
X98298524Y-110245076D01*
X98250905Y-110149838D01*
X98203286Y-110102219D01*
X98108048Y-110054600D01*
X97917572Y-110054600D01*
X97822334Y-110102219D01*
X97346143Y-110054600D02*
X97346143Y-110721266D01*
X97346143Y-110149838D02*
X97298524Y-110102219D01*
X97203286Y-110054600D01*
X97060429Y-110054600D01*
X96965191Y-110102219D01*
X96917572Y-110197457D01*
X96917572Y-110721266D01*
X96012810Y-110721266D02*
X96012810Y-109721266D01*
X96012810Y-110673647D02*
X96108048Y-110721266D01*
X96298524Y-110721266D01*
X96393762Y-110673647D01*
X96441381Y-110626028D01*
X96489000Y-110530790D01*
X96489000Y-110245076D01*
X96441381Y-110149838D01*
X96393762Y-110102219D01*
X96298524Y-110054600D01*
X96108048Y-110054600D01*
X96012810Y-110102219D01*
X122909523Y-118018571D02*
X122766666Y-118066190D01*
X122719047Y-118113809D01*
X122671428Y-118209047D01*
X122671428Y-118351904D01*
X122719047Y-118447142D01*
X122766666Y-118494761D01*
X122861904Y-118542380D01*
X123242857Y-118542380D01*
X123242857Y-117542380D01*
X122909523Y-117542380D01*
X122814285Y-117590000D01*
X122766666Y-117637619D01*
X122719047Y-117732857D01*
X122719047Y-117828095D01*
X122766666Y-117923333D01*
X122814285Y-117970952D01*
X122909523Y-118018571D01*
X123242857Y-118018571D01*
X122242857Y-117542380D02*
X122242857Y-118351904D01*
X122195238Y-118447142D01*
X122147619Y-118494761D01*
X122052380Y-118542380D01*
X121861904Y-118542380D01*
X121766666Y-118494761D01*
X121719047Y-118447142D01*
X121671428Y-118351904D01*
X121671428Y-117542380D01*
X121338095Y-117542380D02*
X120766666Y-117542380D01*
X121052380Y-118542380D02*
X121052380Y-117542380D01*
X119909523Y-118542380D02*
X120480952Y-118542380D01*
X120195238Y-118542380D02*
X120195238Y-117542380D01*
X120290476Y-117685238D01*
X120385714Y-117780476D01*
X120480952Y-117828095D01*
X96861904Y-118990000D02*
X96957142Y-118942380D01*
X97100000Y-118942380D01*
X97242857Y-118990000D01*
X97338095Y-119085238D01*
X97385714Y-119180476D01*
X97433333Y-119370952D01*
X97433333Y-119513809D01*
X97385714Y-119704285D01*
X97338095Y-119799523D01*
X97242857Y-119894761D01*
X97100000Y-119942380D01*
X97004761Y-119942380D01*
X96861904Y-119894761D01*
X96814285Y-119847142D01*
X96814285Y-119513809D01*
X97004761Y-119513809D01*
X92576190Y-119561428D02*
X91814285Y-119561428D01*
X92195238Y-119942380D02*
X92195238Y-119180476D01*
X74395238Y-117942380D02*
X74728571Y-117466190D01*
X74966666Y-117942380D02*
X74966666Y-116942380D01*
X74585714Y-116942380D01*
X74490476Y-116990000D01*
X74442857Y-117037619D01*
X74395238Y-117132857D01*
X74395238Y-117275714D01*
X74442857Y-117370952D01*
X74490476Y-117418571D01*
X74585714Y-117466190D01*
X74966666Y-117466190D01*
X74014285Y-117894761D02*
X73871428Y-117942380D01*
X73633333Y-117942380D01*
X73538095Y-117894761D01*
X73490476Y-117847142D01*
X73442857Y-117751904D01*
X73442857Y-117656666D01*
X73490476Y-117561428D01*
X73538095Y-117513809D01*
X73633333Y-117466190D01*
X73823809Y-117418571D01*
X73919047Y-117370952D01*
X73966666Y-117323333D01*
X74014285Y-117228095D01*
X74014285Y-117132857D01*
X73966666Y-117037619D01*
X73919047Y-116990000D01*
X73823809Y-116942380D01*
X73585714Y-116942380D01*
X73442857Y-116990000D01*
X72585714Y-117275714D02*
X72585714Y-117942380D01*
X72823809Y-116894761D02*
X73061904Y-117609047D01*
X72442857Y-117609047D01*
X71919047Y-117370952D02*
X72014285Y-117323333D01*
X72061904Y-117275714D01*
X72109523Y-117180476D01*
X72109523Y-117132857D01*
X72061904Y-117037619D01*
X72014285Y-116990000D01*
X71919047Y-116942380D01*
X71728571Y-116942380D01*
X71633333Y-116990000D01*
X71585714Y-117037619D01*
X71538095Y-117132857D01*
X71538095Y-117180476D01*
X71585714Y-117275714D01*
X71633333Y-117323333D01*
X71728571Y-117370952D01*
X71919047Y-117370952D01*
X72014285Y-117418571D01*
X72061904Y-117466190D01*
X72109523Y-117561428D01*
X72109523Y-117751904D01*
X72061904Y-117847142D01*
X72014285Y-117894761D01*
X71919047Y-117942380D01*
X71728571Y-117942380D01*
X71633333Y-117894761D01*
X71585714Y-117847142D01*
X71538095Y-117751904D01*
X71538095Y-117561428D01*
X71585714Y-117466190D01*
X71633333Y-117418571D01*
X71728571Y-117370952D01*
X70633333Y-116942380D02*
X71109523Y-116942380D01*
X71157142Y-117418571D01*
X71109523Y-117370952D01*
X71014285Y-117323333D01*
X70776190Y-117323333D01*
X70680952Y-117370952D01*
X70633333Y-117418571D01*
X70585714Y-117513809D01*
X70585714Y-117751904D01*
X70633333Y-117847142D01*
X70680952Y-117894761D01*
X70776190Y-117942380D01*
X71014285Y-117942380D01*
X71109523Y-117894761D01*
X71157142Y-117847142D01*
X195809523Y-118018571D02*
X195666666Y-118066190D01*
X195619047Y-118113809D01*
X195571428Y-118209047D01*
X195571428Y-118351904D01*
X195619047Y-118447142D01*
X195666666Y-118494761D01*
X195761904Y-118542380D01*
X196142857Y-118542380D01*
X196142857Y-117542380D01*
X195809523Y-117542380D01*
X195714285Y-117590000D01*
X195666666Y-117637619D01*
X195619047Y-117732857D01*
X195619047Y-117828095D01*
X195666666Y-117923333D01*
X195714285Y-117970952D01*
X195809523Y-118018571D01*
X196142857Y-118018571D01*
X195142857Y-117542380D02*
X195142857Y-118351904D01*
X195095238Y-118447142D01*
X195047619Y-118494761D01*
X194952380Y-118542380D01*
X194761904Y-118542380D01*
X194666666Y-118494761D01*
X194619047Y-118447142D01*
X194571428Y-118351904D01*
X194571428Y-117542380D01*
X194238095Y-117542380D02*
X193666666Y-117542380D01*
X193952380Y-118542380D02*
X193952380Y-117542380D01*
X193428571Y-117542380D02*
X192761904Y-117542380D01*
X193190476Y-118542380D01*
X134552380Y-120542380D02*
X134552380Y-119542380D01*
X134076190Y-119875714D02*
X134076190Y-120542380D01*
X134076190Y-119970952D02*
X134028571Y-119923333D01*
X133933333Y-119875714D01*
X133790476Y-119875714D01*
X133695238Y-119923333D01*
X133647619Y-120018571D01*
X133647619Y-120542380D01*
X133219047Y-119637619D02*
X133171428Y-119590000D01*
X133076190Y-119542380D01*
X132838095Y-119542380D01*
X132742857Y-119590000D01*
X132695238Y-119637619D01*
X132647619Y-119732857D01*
X132647619Y-119828095D01*
X132695238Y-119970952D01*
X133266666Y-120542380D01*
X132647619Y-120542380D01*
X128647619Y-119590000D02*
X128742857Y-119542380D01*
X128885714Y-119542380D01*
X129028571Y-119590000D01*
X129123809Y-119685238D01*
X129171428Y-119780476D01*
X129219047Y-119970952D01*
X129219047Y-120113809D01*
X129171428Y-120304285D01*
X129123809Y-120399523D01*
X129028571Y-120494761D01*
X128885714Y-120542380D01*
X128790476Y-120542380D01*
X128647619Y-120494761D01*
X128600000Y-120447142D01*
X128600000Y-120113809D01*
X128790476Y-120113809D01*
X143309523Y-118018571D02*
X143166666Y-118066190D01*
X143119047Y-118113809D01*
X143071428Y-118209047D01*
X143071428Y-118351904D01*
X143119047Y-118447142D01*
X143166666Y-118494761D01*
X143261904Y-118542380D01*
X143642857Y-118542380D01*
X143642857Y-117542380D01*
X143309523Y-117542380D01*
X143214285Y-117590000D01*
X143166666Y-117637619D01*
X143119047Y-117732857D01*
X143119047Y-117828095D01*
X143166666Y-117923333D01*
X143214285Y-117970952D01*
X143309523Y-118018571D01*
X143642857Y-118018571D01*
X142642857Y-117542380D02*
X142642857Y-118351904D01*
X142595238Y-118447142D01*
X142547619Y-118494761D01*
X142452380Y-118542380D01*
X142261904Y-118542380D01*
X142166666Y-118494761D01*
X142119047Y-118447142D01*
X142071428Y-118351904D01*
X142071428Y-117542380D01*
X141738095Y-117542380D02*
X141166666Y-117542380D01*
X141452380Y-118542380D02*
X141452380Y-117542380D01*
X140928571Y-117542380D02*
X140309523Y-117542380D01*
X140642857Y-117923333D01*
X140500000Y-117923333D01*
X140404761Y-117970952D01*
X140357142Y-118018571D01*
X140309523Y-118113809D01*
X140309523Y-118351904D01*
X140357142Y-118447142D01*
X140404761Y-118494761D01*
X140500000Y-118542380D01*
X140785714Y-118542380D01*
X140880952Y-118494761D01*
X140928571Y-118447142D01*
X124552380Y-120542380D02*
X124552380Y-119542380D01*
X124076190Y-119875714D02*
X124076190Y-120542380D01*
X124076190Y-119970952D02*
X124028571Y-119923333D01*
X123933333Y-119875714D01*
X123790476Y-119875714D01*
X123695238Y-119923333D01*
X123647619Y-120018571D01*
X123647619Y-120542380D01*
X122647619Y-120542380D02*
X123219047Y-120542380D01*
X122933333Y-120542380D02*
X122933333Y-119542380D01*
X123028571Y-119685238D01*
X123123809Y-119780476D01*
X123219047Y-119828095D01*
X118647619Y-119590000D02*
X118742857Y-119542380D01*
X118885714Y-119542380D01*
X119028571Y-119590000D01*
X119123809Y-119685238D01*
X119171428Y-119780476D01*
X119219047Y-119970952D01*
X119219047Y-120113809D01*
X119171428Y-120304285D01*
X119123809Y-120399523D01*
X119028571Y-120494761D01*
X118885714Y-120542380D01*
X118790476Y-120542380D01*
X118647619Y-120494761D01*
X118600000Y-120447142D01*
X118600000Y-120113809D01*
X118790476Y-120113809D01*
X132909523Y-118018571D02*
X132766666Y-118066190D01*
X132719047Y-118113809D01*
X132671428Y-118209047D01*
X132671428Y-118351904D01*
X132719047Y-118447142D01*
X132766666Y-118494761D01*
X132861904Y-118542380D01*
X133242857Y-118542380D01*
X133242857Y-117542380D01*
X132909523Y-117542380D01*
X132814285Y-117590000D01*
X132766666Y-117637619D01*
X132719047Y-117732857D01*
X132719047Y-117828095D01*
X132766666Y-117923333D01*
X132814285Y-117970952D01*
X132909523Y-118018571D01*
X133242857Y-118018571D01*
X132242857Y-117542380D02*
X132242857Y-118351904D01*
X132195238Y-118447142D01*
X132147619Y-118494761D01*
X132052380Y-118542380D01*
X131861904Y-118542380D01*
X131766666Y-118494761D01*
X131719047Y-118447142D01*
X131671428Y-118351904D01*
X131671428Y-117542380D01*
X131338095Y-117542380D02*
X130766666Y-117542380D01*
X131052380Y-118542380D02*
X131052380Y-117542380D01*
X130480952Y-117637619D02*
X130433333Y-117590000D01*
X130338095Y-117542380D01*
X130100000Y-117542380D01*
X130004761Y-117590000D01*
X129957142Y-117637619D01*
X129909523Y-117732857D01*
X129909523Y-117828095D01*
X129957142Y-117970952D01*
X130528571Y-118542380D01*
X129909523Y-118542380D01*
X95176190Y-118142380D02*
X95176190Y-117142380D01*
X94795238Y-117142380D01*
X94700000Y-117190000D01*
X94652380Y-117237619D01*
X94604761Y-117332857D01*
X94604761Y-117475714D01*
X94652380Y-117570952D01*
X94700000Y-117618571D01*
X94795238Y-117666190D01*
X95176190Y-117666190D01*
X94033333Y-118142380D02*
X94128571Y-118094761D01*
X94176190Y-118047142D01*
X94223809Y-117951904D01*
X94223809Y-117666190D01*
X94176190Y-117570952D01*
X94128571Y-117523333D01*
X94033333Y-117475714D01*
X93890476Y-117475714D01*
X93795238Y-117523333D01*
X93747619Y-117570952D01*
X93700000Y-117666190D01*
X93700000Y-117951904D01*
X93747619Y-118047142D01*
X93795238Y-118094761D01*
X93890476Y-118142380D01*
X94033333Y-118142380D01*
X93366666Y-117475714D02*
X93176190Y-118142380D01*
X92985714Y-117666190D01*
X92795238Y-118142380D01*
X92604761Y-117475714D01*
X91842857Y-118094761D02*
X91938095Y-118142380D01*
X92128571Y-118142380D01*
X92223809Y-118094761D01*
X92271428Y-117999523D01*
X92271428Y-117618571D01*
X92223809Y-117523333D01*
X92128571Y-117475714D01*
X91938095Y-117475714D01*
X91842857Y-117523333D01*
X91795238Y-117618571D01*
X91795238Y-117713809D01*
X92271428Y-117809047D01*
X91366666Y-118142380D02*
X91366666Y-117475714D01*
X91366666Y-117666190D02*
X91319047Y-117570952D01*
X91271428Y-117523333D01*
X91176190Y-117475714D01*
X91080952Y-117475714D01*
D11*
X77952380Y-118990000D02*
X78047619Y-118942380D01*
X78190476Y-118942380D01*
X78333333Y-118990000D01*
X78428571Y-119085238D01*
X78476190Y-119180476D01*
X78523809Y-119370952D01*
X78523809Y-119513809D01*
X78476190Y-119704285D01*
X78428571Y-119799523D01*
X78333333Y-119894761D01*
X78190476Y-119942380D01*
X78095238Y-119942380D01*
X77952380Y-119894761D01*
X77904761Y-119847142D01*
X77904761Y-119513809D01*
X78095238Y-119513809D01*
X73333333Y-119418571D02*
X73190476Y-119466190D01*
X73142857Y-119513809D01*
X73095238Y-119609047D01*
X73095238Y-119751904D01*
X73142857Y-119847142D01*
X73190476Y-119894761D01*
X73285714Y-119942380D01*
X73666666Y-119942380D01*
X73666666Y-118942380D01*
X73333333Y-118942380D01*
X73238095Y-118990000D01*
X73190476Y-119037619D01*
X73142857Y-119132857D01*
X73142857Y-119228095D01*
X73190476Y-119323333D01*
X73238095Y-119370952D01*
X73333333Y-119418571D01*
X73666666Y-119418571D01*
X72666666Y-119561428D02*
X71904761Y-119561428D01*
X68428571Y-119656666D02*
X67952380Y-119656666D01*
X68523809Y-119942380D02*
X68190476Y-118942380D01*
X67857142Y-119942380D01*
X67523809Y-119561428D02*
X66761904Y-119561428D01*
X67142857Y-119942380D02*
X67142857Y-119180476D01*
D10*
X97193762Y-115673647D02*
X97289000Y-115721266D01*
X97479477Y-115721266D01*
X97574715Y-115673647D01*
X97622334Y-115578409D01*
X97622334Y-115197457D01*
X97574715Y-115102219D01*
X97479477Y-115054600D01*
X97289000Y-115054600D01*
X97193762Y-115102219D01*
X97146143Y-115197457D01*
X97146143Y-115292695D01*
X97622334Y-115387933D01*
X96717572Y-115054600D02*
X96717572Y-115721266D01*
X96717572Y-115149838D02*
X96669953Y-115102219D01*
X96574715Y-115054600D01*
X96431858Y-115054600D01*
X96336619Y-115102219D01*
X96289000Y-115197457D01*
X96289000Y-115721266D01*
X97803286Y-113321266D02*
X97803286Y-112654600D01*
X97803286Y-112321266D02*
X97850905Y-112368886D01*
X97803286Y-112416505D01*
X97755667Y-112368886D01*
X97803286Y-112321266D01*
X97803286Y-112416505D01*
X97327096Y-112654600D02*
X97327096Y-113321266D01*
X97327096Y-112749838D02*
X97279477Y-112702219D01*
X97184238Y-112654600D01*
X97041381Y-112654600D01*
X96946143Y-112702219D01*
X96898524Y-112797457D01*
X96898524Y-113321266D01*
X96422334Y-112940314D02*
X95660429Y-112940314D01*
X96041381Y-113321266D02*
X96041381Y-112559362D01*
X155152380Y-120542380D02*
X155152380Y-119542380D01*
X154676190Y-119875714D02*
X154676190Y-120542380D01*
X154676190Y-119970952D02*
X154628571Y-119923333D01*
X154533333Y-119875714D01*
X154390476Y-119875714D01*
X154295238Y-119923333D01*
X154247619Y-120018571D01*
X154247619Y-120542380D01*
X153342857Y-119875714D02*
X153342857Y-120542380D01*
X153580952Y-119494761D02*
X153819047Y-120209047D01*
X153200000Y-120209047D01*
X149247619Y-119590000D02*
X149342857Y-119542380D01*
X149485714Y-119542380D01*
X149628571Y-119590000D01*
X149723809Y-119685238D01*
X149771428Y-119780476D01*
X149819047Y-119970952D01*
X149819047Y-120113809D01*
X149771428Y-120304285D01*
X149723809Y-120399523D01*
X149628571Y-120494761D01*
X149485714Y-120542380D01*
X149390476Y-120542380D01*
X149247619Y-120494761D01*
X149200000Y-120447142D01*
X149200000Y-120113809D01*
X149390476Y-120113809D01*
X176952380Y-120542380D02*
X176952380Y-119542380D01*
X176476190Y-119875714D02*
X176476190Y-120542380D01*
X176476190Y-119970952D02*
X176428571Y-119923333D01*
X176333333Y-119875714D01*
X176190476Y-119875714D01*
X176095238Y-119923333D01*
X176047619Y-120018571D01*
X176047619Y-120542380D01*
X175095238Y-119542380D02*
X175571428Y-119542380D01*
X175619047Y-120018571D01*
X175571428Y-119970952D01*
X175476190Y-119923333D01*
X175238095Y-119923333D01*
X175142857Y-119970952D01*
X175095238Y-120018571D01*
X175047619Y-120113809D01*
X175047619Y-120351904D01*
X175095238Y-120447142D01*
X175142857Y-120494761D01*
X175238095Y-120542380D01*
X175476190Y-120542380D01*
X175571428Y-120494761D01*
X175619047Y-120447142D01*
X171047619Y-119590000D02*
X171142857Y-119542380D01*
X171285714Y-119542380D01*
X171428571Y-119590000D01*
X171523809Y-119685238D01*
X171571428Y-119780476D01*
X171619047Y-119970952D01*
X171619047Y-120113809D01*
X171571428Y-120304285D01*
X171523809Y-120399523D01*
X171428571Y-120494761D01*
X171285714Y-120542380D01*
X171190476Y-120542380D01*
X171047619Y-120494761D01*
X171000000Y-120447142D01*
X171000000Y-120113809D01*
X171190476Y-120113809D01*
X98241381Y-107654600D02*
X98003286Y-108321266D01*
X97765191Y-107654600D01*
X97241381Y-108321266D02*
X97336619Y-108273647D01*
X97384238Y-108226028D01*
X97431858Y-108130790D01*
X97431858Y-107845076D01*
X97384238Y-107749838D01*
X97336619Y-107702219D01*
X97241381Y-107654600D01*
X97098524Y-107654600D01*
X97003286Y-107702219D01*
X96955667Y-107749838D01*
X96908048Y-107845076D01*
X96908048Y-108130790D01*
X96955667Y-108226028D01*
X97003286Y-108273647D01*
X97098524Y-108321266D01*
X97241381Y-108321266D01*
X96479477Y-107940314D02*
X95717572Y-107940314D01*
X96098524Y-108321266D02*
X96098524Y-107559362D01*
X186952380Y-120542380D02*
X186952380Y-119542380D01*
X186476190Y-119875714D02*
X186476190Y-120542380D01*
X186476190Y-119970952D02*
X186428571Y-119923333D01*
X186333333Y-119875714D01*
X186190476Y-119875714D01*
X186095238Y-119923333D01*
X186047619Y-120018571D01*
X186047619Y-120542380D01*
X185142857Y-119542380D02*
X185333333Y-119542380D01*
X185428571Y-119590000D01*
X185476190Y-119637619D01*
X185571428Y-119780476D01*
X185619047Y-119970952D01*
X185619047Y-120351904D01*
X185571428Y-120447142D01*
X185523809Y-120494761D01*
X185428571Y-120542380D01*
X185238095Y-120542380D01*
X185142857Y-120494761D01*
X185095238Y-120447142D01*
X185047619Y-120351904D01*
X185047619Y-120113809D01*
X185095238Y-120018571D01*
X185142857Y-119970952D01*
X185238095Y-119923333D01*
X185428571Y-119923333D01*
X185523809Y-119970952D01*
X185571428Y-120018571D01*
X185619047Y-120113809D01*
X181047619Y-119590000D02*
X181142857Y-119542380D01*
X181285714Y-119542380D01*
X181428571Y-119590000D01*
X181523809Y-119685238D01*
X181571428Y-119780476D01*
X181619047Y-119970952D01*
X181619047Y-120113809D01*
X181571428Y-120304285D01*
X181523809Y-120399523D01*
X181428571Y-120494761D01*
X181285714Y-120542380D01*
X181190476Y-120542380D01*
X181047619Y-120494761D01*
X181000000Y-120447142D01*
X181000000Y-120113809D01*
X181190476Y-120113809D01*
X185309523Y-118018571D02*
X185166666Y-118066190D01*
X185119047Y-118113809D01*
X185071428Y-118209047D01*
X185071428Y-118351904D01*
X185119047Y-118447142D01*
X185166666Y-118494761D01*
X185261904Y-118542380D01*
X185642857Y-118542380D01*
X185642857Y-117542380D01*
X185309523Y-117542380D01*
X185214285Y-117590000D01*
X185166666Y-117637619D01*
X185119047Y-117732857D01*
X185119047Y-117828095D01*
X185166666Y-117923333D01*
X185214285Y-117970952D01*
X185309523Y-118018571D01*
X185642857Y-118018571D01*
X184642857Y-117542380D02*
X184642857Y-118351904D01*
X184595238Y-118447142D01*
X184547619Y-118494761D01*
X184452380Y-118542380D01*
X184261904Y-118542380D01*
X184166666Y-118494761D01*
X184119047Y-118447142D01*
X184071428Y-118351904D01*
X184071428Y-117542380D01*
X183738095Y-117542380D02*
X183166666Y-117542380D01*
X183452380Y-118542380D02*
X183452380Y-117542380D01*
X182404761Y-117542380D02*
X182595238Y-117542380D01*
X182690476Y-117590000D01*
X182738095Y-117637619D01*
X182833333Y-117780476D01*
X182880952Y-117970952D01*
X182880952Y-118351904D01*
X182833333Y-118447142D01*
X182785714Y-118494761D01*
X182690476Y-118542380D01*
X182500000Y-118542380D01*
X182404761Y-118494761D01*
X182357142Y-118447142D01*
X182309523Y-118351904D01*
X182309523Y-118113809D01*
X182357142Y-118018571D01*
X182404761Y-117970952D01*
X182500000Y-117923333D01*
X182690476Y-117923333D01*
X182785714Y-117970952D01*
X182833333Y-118018571D01*
X182880952Y-118113809D01*
X113539285Y-78627380D02*
X114110714Y-78627380D01*
X113825000Y-78627380D02*
X113825000Y-77627380D01*
X113920238Y-77770238D01*
X114015476Y-77865476D01*
X114110714Y-77913095D01*
X175309523Y-118018571D02*
X175166666Y-118066190D01*
X175119047Y-118113809D01*
X175071428Y-118209047D01*
X175071428Y-118351904D01*
X175119047Y-118447142D01*
X175166666Y-118494761D01*
X175261904Y-118542380D01*
X175642857Y-118542380D01*
X175642857Y-117542380D01*
X175309523Y-117542380D01*
X175214285Y-117590000D01*
X175166666Y-117637619D01*
X175119047Y-117732857D01*
X175119047Y-117828095D01*
X175166666Y-117923333D01*
X175214285Y-117970952D01*
X175309523Y-118018571D01*
X175642857Y-118018571D01*
X174642857Y-117542380D02*
X174642857Y-118351904D01*
X174595238Y-118447142D01*
X174547619Y-118494761D01*
X174452380Y-118542380D01*
X174261904Y-118542380D01*
X174166666Y-118494761D01*
X174119047Y-118447142D01*
X174071428Y-118351904D01*
X174071428Y-117542380D01*
X173738095Y-117542380D02*
X173166666Y-117542380D01*
X173452380Y-118542380D02*
X173452380Y-117542380D01*
X172357142Y-117542380D02*
X172833333Y-117542380D01*
X172880952Y-118018571D01*
X172833333Y-117970952D01*
X172738095Y-117923333D01*
X172500000Y-117923333D01*
X172404761Y-117970952D01*
X172357142Y-118018571D01*
X172309523Y-118113809D01*
X172309523Y-118351904D01*
X172357142Y-118447142D01*
X172404761Y-118494761D01*
X172500000Y-118542380D01*
X172738095Y-118542380D01*
X172833333Y-118494761D01*
X172880952Y-118447142D01*
X144952380Y-120542380D02*
X144952380Y-119542380D01*
X144476190Y-119875714D02*
X144476190Y-120542380D01*
X144476190Y-119970952D02*
X144428571Y-119923333D01*
X144333333Y-119875714D01*
X144190476Y-119875714D01*
X144095238Y-119923333D01*
X144047619Y-120018571D01*
X144047619Y-120542380D01*
X143666666Y-119542380D02*
X143047619Y-119542380D01*
X143380952Y-119923333D01*
X143238095Y-119923333D01*
X143142857Y-119970952D01*
X143095238Y-120018571D01*
X143047619Y-120113809D01*
X143047619Y-120351904D01*
X143095238Y-120447142D01*
X143142857Y-120494761D01*
X143238095Y-120542380D01*
X143523809Y-120542380D01*
X143619047Y-120494761D01*
X143666666Y-120447142D01*
X139047619Y-119590000D02*
X139142857Y-119542380D01*
X139285714Y-119542380D01*
X139428571Y-119590000D01*
X139523809Y-119685238D01*
X139571428Y-119780476D01*
X139619047Y-119970952D01*
X139619047Y-120113809D01*
X139571428Y-120304285D01*
X139523809Y-120399523D01*
X139428571Y-120494761D01*
X139285714Y-120542380D01*
X139190476Y-120542380D01*
X139047619Y-120494761D01*
X139000000Y-120447142D01*
X139000000Y-120113809D01*
X139190476Y-120113809D01*
X206085976Y-117992341D02*
X205943119Y-118039960D01*
X205895500Y-118087579D01*
X205847881Y-118182817D01*
X205847881Y-118325674D01*
X205895500Y-118420912D01*
X205943119Y-118468531D01*
X206038357Y-118516150D01*
X206419310Y-118516150D01*
X206419310Y-117516150D01*
X206085976Y-117516150D01*
X205990738Y-117563770D01*
X205943119Y-117611389D01*
X205895500Y-117706627D01*
X205895500Y-117801865D01*
X205943119Y-117897103D01*
X205990738Y-117944722D01*
X206085976Y-117992341D01*
X206419310Y-117992341D01*
X205419310Y-117516150D02*
X205419310Y-118325674D01*
X205371691Y-118420912D01*
X205324072Y-118468531D01*
X205228833Y-118516150D01*
X205038357Y-118516150D01*
X204943119Y-118468531D01*
X204895500Y-118420912D01*
X204847881Y-118325674D01*
X204847881Y-117516150D01*
X204514548Y-117516150D02*
X203943119Y-117516150D01*
X204228833Y-118516150D02*
X204228833Y-117516150D01*
X203466929Y-117944722D02*
X203562167Y-117897103D01*
X203609786Y-117849484D01*
X203657405Y-117754246D01*
X203657405Y-117706627D01*
X203609786Y-117611389D01*
X203562167Y-117563770D01*
X203466929Y-117516150D01*
X203276453Y-117516150D01*
X203181214Y-117563770D01*
X203133595Y-117611389D01*
X203085976Y-117706627D01*
X203085976Y-117754246D01*
X203133595Y-117849484D01*
X203181214Y-117897103D01*
X203276453Y-117944722D01*
X203466929Y-117944722D01*
X203562167Y-117992341D01*
X203609786Y-118039960D01*
X203657405Y-118135198D01*
X203657405Y-118325674D01*
X203609786Y-118420912D01*
X203562167Y-118468531D01*
X203466929Y-118516150D01*
X203276453Y-118516150D01*
X203181214Y-118468531D01*
X203133595Y-118420912D01*
X203085976Y-118325674D01*
X203085976Y-118135198D01*
X203133595Y-118039960D01*
X203181214Y-117992341D01*
X203276453Y-117944722D01*
%TO.C,SW2*%
X207347940Y-93502218D02*
X207395559Y-93645075D01*
X207395559Y-93883171D01*
X207347940Y-93978409D01*
X207300321Y-94026028D01*
X207205083Y-94073647D01*
X207109845Y-94073647D01*
X207014607Y-94026028D01*
X206966988Y-93978409D01*
X206919369Y-93883171D01*
X206871750Y-93692694D01*
X206824131Y-93597456D01*
X206776512Y-93549837D01*
X206681274Y-93502218D01*
X206586036Y-93502218D01*
X206490798Y-93549837D01*
X206443179Y-93597456D01*
X206395559Y-93692694D01*
X206395559Y-93930790D01*
X206443179Y-94073647D01*
X206395559Y-94406980D02*
X207395559Y-94645075D01*
X206681274Y-94835552D01*
X207395559Y-95026028D01*
X206395559Y-95264123D01*
X206490798Y-95597456D02*
X206443179Y-95645075D01*
X206395559Y-95740313D01*
X206395559Y-95978409D01*
X206443179Y-96073647D01*
X206490798Y-96121266D01*
X206586036Y-96168885D01*
X206681274Y-96168885D01*
X206824131Y-96121266D01*
X207395559Y-95549837D01*
X207395559Y-96168885D01*
%TO.C,SW1*%
X207354761Y-81766666D02*
X207402380Y-81909523D01*
X207402380Y-82147619D01*
X207354761Y-82242857D01*
X207307142Y-82290476D01*
X207211904Y-82338095D01*
X207116666Y-82338095D01*
X207021428Y-82290476D01*
X206973809Y-82242857D01*
X206926190Y-82147619D01*
X206878571Y-81957142D01*
X206830952Y-81861904D01*
X206783333Y-81814285D01*
X206688095Y-81766666D01*
X206592857Y-81766666D01*
X206497619Y-81814285D01*
X206450000Y-81861904D01*
X206402380Y-81957142D01*
X206402380Y-82195238D01*
X206450000Y-82338095D01*
X206402380Y-82671428D02*
X207402380Y-82909523D01*
X206688095Y-83100000D01*
X207402380Y-83290476D01*
X206402380Y-83528571D01*
X207402380Y-84433333D02*
X207402380Y-83861904D01*
X207402380Y-84147619D02*
X206402380Y-84147619D01*
X206545238Y-84052380D01*
X206640476Y-83957142D01*
X206688095Y-83861904D01*
%TO.C,U2*%
X147843553Y-91783455D02*
X147843553Y-92354884D01*
X147843553Y-92069170D02*
X148843553Y-92069170D01*
X148700695Y-92164408D01*
X148605457Y-92259646D01*
X148557838Y-92354884D01*
X148752380Y-73351904D02*
X148800000Y-73304285D01*
X148847619Y-73209047D01*
X148847619Y-72970952D01*
X148800000Y-72875714D01*
X148752380Y-72828095D01*
X148657142Y-72780476D01*
X148561904Y-72780476D01*
X148419047Y-72828095D01*
X147847619Y-73399523D01*
X147847619Y-72780476D01*
X148514285Y-71923333D02*
X147847619Y-71923333D01*
X148895238Y-72161428D02*
X148180952Y-72399523D01*
X148180952Y-71780476D01*
X152847619Y-72637619D02*
X153323809Y-72970952D01*
X152847619Y-73209047D02*
X153847619Y-73209047D01*
X153847619Y-72828095D01*
X153800000Y-72732857D01*
X153752380Y-72685238D01*
X153657142Y-72637619D01*
X153514285Y-72637619D01*
X153419047Y-72685238D01*
X153371428Y-72732857D01*
X153323809Y-72828095D01*
X153323809Y-73209047D01*
X152895238Y-72256666D02*
X152847619Y-72113809D01*
X152847619Y-71875714D01*
X152895238Y-71780476D01*
X152942857Y-71732857D01*
X153038095Y-71685238D01*
X153133333Y-71685238D01*
X153228571Y-71732857D01*
X153276190Y-71780476D01*
X153323809Y-71875714D01*
X153371428Y-72066190D01*
X153419047Y-72161428D01*
X153466666Y-72209047D01*
X153561904Y-72256666D01*
X153657142Y-72256666D01*
X153752380Y-72209047D01*
X153800000Y-72161428D01*
X153847619Y-72066190D01*
X153847619Y-71828095D01*
X153800000Y-71685238D01*
X153847619Y-71399523D02*
X153847619Y-70828095D01*
X152847619Y-71113809D02*
X153847619Y-71113809D01*
X175826057Y-92774859D02*
X175826057Y-93346287D01*
X175826057Y-93060573D02*
X176826057Y-93060573D01*
X176683199Y-93155811D01*
X176587961Y-93251049D01*
X176540342Y-93346287D01*
X176730818Y-92393906D02*
X176778438Y-92346287D01*
X176826057Y-92251049D01*
X176826057Y-92012954D01*
X176778438Y-91917716D01*
X176730818Y-91870097D01*
X176635580Y-91822478D01*
X176540342Y-91822478D01*
X176397485Y-91870097D01*
X175826057Y-92441525D01*
X175826057Y-91822478D01*
X175826057Y-72778156D02*
X175826057Y-73349584D01*
X175826057Y-73063870D02*
X176826057Y-73063870D01*
X176683199Y-73159108D01*
X176587961Y-73254346D01*
X176540342Y-73349584D01*
X176826057Y-72444822D02*
X176826057Y-71825775D01*
X176445104Y-72159108D01*
X176445104Y-72016251D01*
X176397485Y-71921013D01*
X176349866Y-71873394D01*
X176254628Y-71825775D01*
X176016533Y-71825775D01*
X175921295Y-71873394D01*
X175873676Y-71921013D01*
X175826057Y-72016251D01*
X175826057Y-72301965D01*
X175873676Y-72397203D01*
X175921295Y-72444822D01*
%TO.C,R6*%
X91566666Y-84792380D02*
X91900000Y-84316190D01*
X92138095Y-84792380D02*
X92138095Y-83792380D01*
X91757142Y-83792380D01*
X91661904Y-83840000D01*
X91614285Y-83887619D01*
X91566666Y-83982857D01*
X91566666Y-84125714D01*
X91614285Y-84220952D01*
X91661904Y-84268571D01*
X91757142Y-84316190D01*
X92138095Y-84316190D01*
X90709523Y-83792380D02*
X90900000Y-83792380D01*
X90995238Y-83840000D01*
X91042857Y-83887619D01*
X91138095Y-84030476D01*
X91185714Y-84220952D01*
X91185714Y-84601904D01*
X91138095Y-84697142D01*
X91090476Y-84744761D01*
X90995238Y-84792380D01*
X90804761Y-84792380D01*
X90709523Y-84744761D01*
X90661904Y-84697142D01*
X90614285Y-84601904D01*
X90614285Y-84363809D01*
X90661904Y-84268571D01*
X90709523Y-84220952D01*
X90804761Y-84173333D01*
X90995238Y-84173333D01*
X91090476Y-84220952D01*
X91138095Y-84268571D01*
X91185714Y-84363809D01*
%TO.C,R38*%
X83842857Y-69992380D02*
X84176190Y-69516190D01*
X84414285Y-69992380D02*
X84414285Y-68992380D01*
X84033333Y-68992380D01*
X83938095Y-69040000D01*
X83890476Y-69087619D01*
X83842857Y-69182857D01*
X83842857Y-69325714D01*
X83890476Y-69420952D01*
X83938095Y-69468571D01*
X84033333Y-69516190D01*
X84414285Y-69516190D01*
X83509523Y-68992380D02*
X82890476Y-68992380D01*
X83223809Y-69373333D01*
X83080952Y-69373333D01*
X82985714Y-69420952D01*
X82938095Y-69468571D01*
X82890476Y-69563809D01*
X82890476Y-69801904D01*
X82938095Y-69897142D01*
X82985714Y-69944761D01*
X83080952Y-69992380D01*
X83366666Y-69992380D01*
X83461904Y-69944761D01*
X83509523Y-69897142D01*
X82319047Y-69420952D02*
X82414285Y-69373333D01*
X82461904Y-69325714D01*
X82509523Y-69230476D01*
X82509523Y-69182857D01*
X82461904Y-69087619D01*
X82414285Y-69040000D01*
X82319047Y-68992380D01*
X82128571Y-68992380D01*
X82033333Y-69040000D01*
X81985714Y-69087619D01*
X81938095Y-69182857D01*
X81938095Y-69230476D01*
X81985714Y-69325714D01*
X82033333Y-69373333D01*
X82128571Y-69420952D01*
X82319047Y-69420952D01*
X82414285Y-69468571D01*
X82461904Y-69516190D01*
X82509523Y-69611428D01*
X82509523Y-69801904D01*
X82461904Y-69897142D01*
X82414285Y-69944761D01*
X82319047Y-69992380D01*
X82128571Y-69992380D01*
X82033333Y-69944761D01*
X81985714Y-69897142D01*
X81938095Y-69801904D01*
X81938095Y-69611428D01*
X81985714Y-69516190D01*
X82033333Y-69468571D01*
X82128571Y-69420952D01*
%TO.C,R2*%
X125902380Y-81023333D02*
X125426190Y-80690000D01*
X125902380Y-80451904D02*
X124902380Y-80451904D01*
X124902380Y-80832857D01*
X124950000Y-80928095D01*
X124997619Y-80975714D01*
X125092857Y-81023333D01*
X125235714Y-81023333D01*
X125330952Y-80975714D01*
X125378571Y-80928095D01*
X125426190Y-80832857D01*
X125426190Y-80451904D01*
X124997619Y-81404285D02*
X124950000Y-81451904D01*
X124902380Y-81547142D01*
X124902380Y-81785238D01*
X124950000Y-81880476D01*
X124997619Y-81928095D01*
X125092857Y-81975714D01*
X125188095Y-81975714D01*
X125330952Y-81928095D01*
X125902380Y-81356666D01*
X125902380Y-81975714D01*
%TO.C,R61*%
X161092857Y-65742380D02*
X161426190Y-65266190D01*
X161664285Y-65742380D02*
X161664285Y-64742380D01*
X161283333Y-64742380D01*
X161188095Y-64790000D01*
X161140476Y-64837619D01*
X161092857Y-64932857D01*
X161092857Y-65075714D01*
X161140476Y-65170952D01*
X161188095Y-65218571D01*
X161283333Y-65266190D01*
X161664285Y-65266190D01*
X160235714Y-64742380D02*
X160426190Y-64742380D01*
X160521428Y-64790000D01*
X160569047Y-64837619D01*
X160664285Y-64980476D01*
X160711904Y-65170952D01*
X160711904Y-65551904D01*
X160664285Y-65647142D01*
X160616666Y-65694761D01*
X160521428Y-65742380D01*
X160330952Y-65742380D01*
X160235714Y-65694761D01*
X160188095Y-65647142D01*
X160140476Y-65551904D01*
X160140476Y-65313809D01*
X160188095Y-65218571D01*
X160235714Y-65170952D01*
X160330952Y-65123333D01*
X160521428Y-65123333D01*
X160616666Y-65170952D01*
X160664285Y-65218571D01*
X160711904Y-65313809D01*
X159188095Y-65742380D02*
X159759523Y-65742380D01*
X159473809Y-65742380D02*
X159473809Y-64742380D01*
X159569047Y-64885238D01*
X159664285Y-64980476D01*
X159759523Y-65028095D01*
%TO.C,R3*%
X163302380Y-94423333D02*
X162826190Y-94090000D01*
X163302380Y-93851904D02*
X162302380Y-93851904D01*
X162302380Y-94232857D01*
X162350000Y-94328095D01*
X162397619Y-94375714D01*
X162492857Y-94423333D01*
X162635714Y-94423333D01*
X162730952Y-94375714D01*
X162778571Y-94328095D01*
X162826190Y-94232857D01*
X162826190Y-93851904D01*
X162302380Y-94756666D02*
X162302380Y-95375714D01*
X162683333Y-95042380D01*
X162683333Y-95185238D01*
X162730952Y-95280476D01*
X162778571Y-95328095D01*
X162873809Y-95375714D01*
X163111904Y-95375714D01*
X163207142Y-95328095D01*
X163254761Y-95280476D01*
X163302380Y-95185238D01*
X163302380Y-94899523D01*
X163254761Y-94804285D01*
X163207142Y-94756666D01*
%TO.C,R29*%
X139542857Y-66192380D02*
X139876190Y-65716190D01*
X140114285Y-66192380D02*
X140114285Y-65192380D01*
X139733333Y-65192380D01*
X139638095Y-65240000D01*
X139590476Y-65287619D01*
X139542857Y-65382857D01*
X139542857Y-65525714D01*
X139590476Y-65620952D01*
X139638095Y-65668571D01*
X139733333Y-65716190D01*
X140114285Y-65716190D01*
X139161904Y-65287619D02*
X139114285Y-65240000D01*
X139019047Y-65192380D01*
X138780952Y-65192380D01*
X138685714Y-65240000D01*
X138638095Y-65287619D01*
X138590476Y-65382857D01*
X138590476Y-65478095D01*
X138638095Y-65620952D01*
X139209523Y-66192380D01*
X138590476Y-66192380D01*
X138114285Y-66192380D02*
X137923809Y-66192380D01*
X137828571Y-66144761D01*
X137780952Y-66097142D01*
X137685714Y-65954285D01*
X137638095Y-65763809D01*
X137638095Y-65382857D01*
X137685714Y-65287619D01*
X137733333Y-65240000D01*
X137828571Y-65192380D01*
X138019047Y-65192380D01*
X138114285Y-65240000D01*
X138161904Y-65287619D01*
X138209523Y-65382857D01*
X138209523Y-65620952D01*
X138161904Y-65716190D01*
X138114285Y-65763809D01*
X138019047Y-65811428D01*
X137828571Y-65811428D01*
X137733333Y-65763809D01*
X137685714Y-65716190D01*
X137638095Y-65620952D01*
%TO.C,R5*%
X91666666Y-88992380D02*
X92000000Y-88516190D01*
X92238095Y-88992380D02*
X92238095Y-87992380D01*
X91857142Y-87992380D01*
X91761904Y-88040000D01*
X91714285Y-88087619D01*
X91666666Y-88182857D01*
X91666666Y-88325714D01*
X91714285Y-88420952D01*
X91761904Y-88468571D01*
X91857142Y-88516190D01*
X92238095Y-88516190D01*
X90761904Y-87992380D02*
X91238095Y-87992380D01*
X91285714Y-88468571D01*
X91238095Y-88420952D01*
X91142857Y-88373333D01*
X90904761Y-88373333D01*
X90809523Y-88420952D01*
X90761904Y-88468571D01*
X90714285Y-88563809D01*
X90714285Y-88801904D01*
X90761904Y-88897142D01*
X90809523Y-88944761D01*
X90904761Y-88992380D01*
X91142857Y-88992380D01*
X91238095Y-88944761D01*
X91285714Y-88897142D01*
%TO.C,R57*%
X191742857Y-71092380D02*
X192076190Y-70616190D01*
X192314285Y-71092380D02*
X192314285Y-70092380D01*
X191933333Y-70092380D01*
X191838095Y-70140000D01*
X191790476Y-70187619D01*
X191742857Y-70282857D01*
X191742857Y-70425714D01*
X191790476Y-70520952D01*
X191838095Y-70568571D01*
X191933333Y-70616190D01*
X192314285Y-70616190D01*
X190838095Y-70092380D02*
X191314285Y-70092380D01*
X191361904Y-70568571D01*
X191314285Y-70520952D01*
X191219047Y-70473333D01*
X190980952Y-70473333D01*
X190885714Y-70520952D01*
X190838095Y-70568571D01*
X190790476Y-70663809D01*
X190790476Y-70901904D01*
X190838095Y-70997142D01*
X190885714Y-71044761D01*
X190980952Y-71092380D01*
X191219047Y-71092380D01*
X191314285Y-71044761D01*
X191361904Y-70997142D01*
X190457142Y-70092380D02*
X189790476Y-70092380D01*
X190219047Y-71092380D01*
%TO.C,R20*%
X65742857Y-66192380D02*
X66076190Y-65716190D01*
X66314285Y-66192380D02*
X66314285Y-65192380D01*
X65933333Y-65192380D01*
X65838095Y-65240000D01*
X65790476Y-65287619D01*
X65742857Y-65382857D01*
X65742857Y-65525714D01*
X65790476Y-65620952D01*
X65838095Y-65668571D01*
X65933333Y-65716190D01*
X66314285Y-65716190D01*
X65361904Y-65287619D02*
X65314285Y-65240000D01*
X65219047Y-65192380D01*
X64980952Y-65192380D01*
X64885714Y-65240000D01*
X64838095Y-65287619D01*
X64790476Y-65382857D01*
X64790476Y-65478095D01*
X64838095Y-65620952D01*
X65409523Y-66192380D01*
X64790476Y-66192380D01*
X64171428Y-65192380D02*
X64076190Y-65192380D01*
X63980952Y-65240000D01*
X63933333Y-65287619D01*
X63885714Y-65382857D01*
X63838095Y-65573333D01*
X63838095Y-65811428D01*
X63885714Y-66001904D01*
X63933333Y-66097142D01*
X63980952Y-66144761D01*
X64076190Y-66192380D01*
X64171428Y-66192380D01*
X64266666Y-66144761D01*
X64314285Y-66097142D01*
X64361904Y-66001904D01*
X64409523Y-65811428D01*
X64409523Y-65573333D01*
X64361904Y-65382857D01*
X64314285Y-65287619D01*
X64266666Y-65240000D01*
X64171428Y-65192380D01*
%TO.C,R40*%
X101542857Y-70692380D02*
X101876190Y-70216190D01*
X102114285Y-70692380D02*
X102114285Y-69692380D01*
X101733333Y-69692380D01*
X101638095Y-69740000D01*
X101590476Y-69787619D01*
X101542857Y-69882857D01*
X101542857Y-70025714D01*
X101590476Y-70120952D01*
X101638095Y-70168571D01*
X101733333Y-70216190D01*
X102114285Y-70216190D01*
X100685714Y-70025714D02*
X100685714Y-70692380D01*
X100923809Y-69644761D02*
X101161904Y-70359047D01*
X100542857Y-70359047D01*
X99971428Y-69692380D02*
X99876190Y-69692380D01*
X99780952Y-69740000D01*
X99733333Y-69787619D01*
X99685714Y-69882857D01*
X99638095Y-70073333D01*
X99638095Y-70311428D01*
X99685714Y-70501904D01*
X99733333Y-70597142D01*
X99780952Y-70644761D01*
X99876190Y-70692380D01*
X99971428Y-70692380D01*
X100066666Y-70644761D01*
X100114285Y-70597142D01*
X100161904Y-70501904D01*
X100209523Y-70311428D01*
X100209523Y-70073333D01*
X100161904Y-69882857D01*
X100114285Y-69787619D01*
X100066666Y-69740000D01*
X99971428Y-69692380D01*
%TO.C,R59*%
X208442857Y-70992380D02*
X208776190Y-70516190D01*
X209014285Y-70992380D02*
X209014285Y-69992380D01*
X208633333Y-69992380D01*
X208538095Y-70040000D01*
X208490476Y-70087619D01*
X208442857Y-70182857D01*
X208442857Y-70325714D01*
X208490476Y-70420952D01*
X208538095Y-70468571D01*
X208633333Y-70516190D01*
X209014285Y-70516190D01*
X207538095Y-69992380D02*
X208014285Y-69992380D01*
X208061904Y-70468571D01*
X208014285Y-70420952D01*
X207919047Y-70373333D01*
X207680952Y-70373333D01*
X207585714Y-70420952D01*
X207538095Y-70468571D01*
X207490476Y-70563809D01*
X207490476Y-70801904D01*
X207538095Y-70897142D01*
X207585714Y-70944761D01*
X207680952Y-70992380D01*
X207919047Y-70992380D01*
X208014285Y-70944761D01*
X208061904Y-70897142D01*
X207014285Y-70992380D02*
X206823809Y-70992380D01*
X206728571Y-70944761D01*
X206680952Y-70897142D01*
X206585714Y-70754285D01*
X206538095Y-70563809D01*
X206538095Y-70182857D01*
X206585714Y-70087619D01*
X206633333Y-70040000D01*
X206728571Y-69992380D01*
X206919047Y-69992380D01*
X207014285Y-70040000D01*
X207061904Y-70087619D01*
X207109523Y-70182857D01*
X207109523Y-70420952D01*
X207061904Y-70516190D01*
X207014285Y-70563809D01*
X206919047Y-70611428D01*
X206728571Y-70611428D01*
X206633333Y-70563809D01*
X206585714Y-70516190D01*
X206538095Y-70420952D01*
%TO.C,R58*%
X127742857Y-71092380D02*
X128076190Y-70616190D01*
X128314285Y-71092380D02*
X128314285Y-70092380D01*
X127933333Y-70092380D01*
X127838095Y-70140000D01*
X127790476Y-70187619D01*
X127742857Y-70282857D01*
X127742857Y-70425714D01*
X127790476Y-70520952D01*
X127838095Y-70568571D01*
X127933333Y-70616190D01*
X128314285Y-70616190D01*
X126838095Y-70092380D02*
X127314285Y-70092380D01*
X127361904Y-70568571D01*
X127314285Y-70520952D01*
X127219047Y-70473333D01*
X126980952Y-70473333D01*
X126885714Y-70520952D01*
X126838095Y-70568571D01*
X126790476Y-70663809D01*
X126790476Y-70901904D01*
X126838095Y-70997142D01*
X126885714Y-71044761D01*
X126980952Y-71092380D01*
X127219047Y-71092380D01*
X127314285Y-71044761D01*
X127361904Y-70997142D01*
X126219047Y-70520952D02*
X126314285Y-70473333D01*
X126361904Y-70425714D01*
X126409523Y-70330476D01*
X126409523Y-70282857D01*
X126361904Y-70187619D01*
X126314285Y-70140000D01*
X126219047Y-70092380D01*
X126028571Y-70092380D01*
X125933333Y-70140000D01*
X125885714Y-70187619D01*
X125838095Y-70282857D01*
X125838095Y-70330476D01*
X125885714Y-70425714D01*
X125933333Y-70473333D01*
X126028571Y-70520952D01*
X126219047Y-70520952D01*
X126314285Y-70568571D01*
X126361904Y-70616190D01*
X126409523Y-70711428D01*
X126409523Y-70901904D01*
X126361904Y-70997142D01*
X126314285Y-71044761D01*
X126219047Y-71092380D01*
X126028571Y-71092380D01*
X125933333Y-71044761D01*
X125885714Y-70997142D01*
X125838095Y-70901904D01*
X125838095Y-70711428D01*
X125885714Y-70616190D01*
X125933333Y-70568571D01*
X126028571Y-70520952D01*
%TO.C,R27*%
X122142857Y-66292380D02*
X122476190Y-65816190D01*
X122714285Y-66292380D02*
X122714285Y-65292380D01*
X122333333Y-65292380D01*
X122238095Y-65340000D01*
X122190476Y-65387619D01*
X122142857Y-65482857D01*
X122142857Y-65625714D01*
X122190476Y-65720952D01*
X122238095Y-65768571D01*
X122333333Y-65816190D01*
X122714285Y-65816190D01*
X121761904Y-65387619D02*
X121714285Y-65340000D01*
X121619047Y-65292380D01*
X121380952Y-65292380D01*
X121285714Y-65340000D01*
X121238095Y-65387619D01*
X121190476Y-65482857D01*
X121190476Y-65578095D01*
X121238095Y-65720952D01*
X121809523Y-66292380D01*
X121190476Y-66292380D01*
X120857142Y-65292380D02*
X120190476Y-65292380D01*
X120619047Y-66292380D01*
%TO.C,R1*%
X109702380Y-101323333D02*
X109226190Y-100990000D01*
X109702380Y-100751904D02*
X108702380Y-100751904D01*
X108702380Y-101132857D01*
X108750000Y-101228095D01*
X108797619Y-101275714D01*
X108892857Y-101323333D01*
X109035714Y-101323333D01*
X109130952Y-101275714D01*
X109178571Y-101228095D01*
X109226190Y-101132857D01*
X109226190Y-100751904D01*
X109702380Y-102275714D02*
X109702380Y-101704285D01*
X109702380Y-101990000D02*
X108702380Y-101990000D01*
X108845238Y-101894761D01*
X108940476Y-101799523D01*
X108988095Y-101704285D01*
%TO.C,R33*%
X185942857Y-66292380D02*
X186276190Y-65816190D01*
X186514285Y-66292380D02*
X186514285Y-65292380D01*
X186133333Y-65292380D01*
X186038095Y-65340000D01*
X185990476Y-65387619D01*
X185942857Y-65482857D01*
X185942857Y-65625714D01*
X185990476Y-65720952D01*
X186038095Y-65768571D01*
X186133333Y-65816190D01*
X186514285Y-65816190D01*
X185609523Y-65292380D02*
X184990476Y-65292380D01*
X185323809Y-65673333D01*
X185180952Y-65673333D01*
X185085714Y-65720952D01*
X185038095Y-65768571D01*
X184990476Y-65863809D01*
X184990476Y-66101904D01*
X185038095Y-66197142D01*
X185085714Y-66244761D01*
X185180952Y-66292380D01*
X185466666Y-66292380D01*
X185561904Y-66244761D01*
X185609523Y-66197142D01*
X184657142Y-65292380D02*
X184038095Y-65292380D01*
X184371428Y-65673333D01*
X184228571Y-65673333D01*
X184133333Y-65720952D01*
X184085714Y-65768571D01*
X184038095Y-65863809D01*
X184038095Y-66101904D01*
X184085714Y-66197142D01*
X184133333Y-66244761D01*
X184228571Y-66292380D01*
X184514285Y-66292380D01*
X184609523Y-66244761D01*
X184657142Y-66197142D01*
%TO.C,R28*%
X145692857Y-66192380D02*
X146026190Y-65716190D01*
X146264285Y-66192380D02*
X146264285Y-65192380D01*
X145883333Y-65192380D01*
X145788095Y-65240000D01*
X145740476Y-65287619D01*
X145692857Y-65382857D01*
X145692857Y-65525714D01*
X145740476Y-65620952D01*
X145788095Y-65668571D01*
X145883333Y-65716190D01*
X146264285Y-65716190D01*
X145311904Y-65287619D02*
X145264285Y-65240000D01*
X145169047Y-65192380D01*
X144930952Y-65192380D01*
X144835714Y-65240000D01*
X144788095Y-65287619D01*
X144740476Y-65382857D01*
X144740476Y-65478095D01*
X144788095Y-65620952D01*
X145359523Y-66192380D01*
X144740476Y-66192380D01*
X144169047Y-65620952D02*
X144264285Y-65573333D01*
X144311904Y-65525714D01*
X144359523Y-65430476D01*
X144359523Y-65382857D01*
X144311904Y-65287619D01*
X144264285Y-65240000D01*
X144169047Y-65192380D01*
X143978571Y-65192380D01*
X143883333Y-65240000D01*
X143835714Y-65287619D01*
X143788095Y-65382857D01*
X143788095Y-65430476D01*
X143835714Y-65525714D01*
X143883333Y-65573333D01*
X143978571Y-65620952D01*
X144169047Y-65620952D01*
X144264285Y-65668571D01*
X144311904Y-65716190D01*
X144359523Y-65811428D01*
X144359523Y-66001904D01*
X144311904Y-66097142D01*
X144264285Y-66144761D01*
X144169047Y-66192380D01*
X143978571Y-66192380D01*
X143883333Y-66144761D01*
X143835714Y-66097142D01*
X143788095Y-66001904D01*
X143788095Y-65811428D01*
X143835714Y-65716190D01*
X143883333Y-65668571D01*
X143978571Y-65620952D01*
%TO.C,R30*%
X173792857Y-66442380D02*
X174126190Y-65966190D01*
X174364285Y-66442380D02*
X174364285Y-65442380D01*
X173983333Y-65442380D01*
X173888095Y-65490000D01*
X173840476Y-65537619D01*
X173792857Y-65632857D01*
X173792857Y-65775714D01*
X173840476Y-65870952D01*
X173888095Y-65918571D01*
X173983333Y-65966190D01*
X174364285Y-65966190D01*
X173459523Y-65442380D02*
X172840476Y-65442380D01*
X173173809Y-65823333D01*
X173030952Y-65823333D01*
X172935714Y-65870952D01*
X172888095Y-65918571D01*
X172840476Y-66013809D01*
X172840476Y-66251904D01*
X172888095Y-66347142D01*
X172935714Y-66394761D01*
X173030952Y-66442380D01*
X173316666Y-66442380D01*
X173411904Y-66394761D01*
X173459523Y-66347142D01*
X172221428Y-65442380D02*
X172126190Y-65442380D01*
X172030952Y-65490000D01*
X171983333Y-65537619D01*
X171935714Y-65632857D01*
X171888095Y-65823333D01*
X171888095Y-66061428D01*
X171935714Y-66251904D01*
X171983333Y-66347142D01*
X172030952Y-66394761D01*
X172126190Y-66442380D01*
X172221428Y-66442380D01*
X172316666Y-66394761D01*
X172364285Y-66347142D01*
X172411904Y-66251904D01*
X172459523Y-66061428D01*
X172459523Y-65823333D01*
X172411904Y-65632857D01*
X172364285Y-65537619D01*
X172316666Y-65490000D01*
X172221428Y-65442380D01*
%TO.C,R32*%
X191842857Y-66292380D02*
X192176190Y-65816190D01*
X192414285Y-66292380D02*
X192414285Y-65292380D01*
X192033333Y-65292380D01*
X191938095Y-65340000D01*
X191890476Y-65387619D01*
X191842857Y-65482857D01*
X191842857Y-65625714D01*
X191890476Y-65720952D01*
X191938095Y-65768571D01*
X192033333Y-65816190D01*
X192414285Y-65816190D01*
X191509523Y-65292380D02*
X190890476Y-65292380D01*
X191223809Y-65673333D01*
X191080952Y-65673333D01*
X190985714Y-65720952D01*
X190938095Y-65768571D01*
X190890476Y-65863809D01*
X190890476Y-66101904D01*
X190938095Y-66197142D01*
X190985714Y-66244761D01*
X191080952Y-66292380D01*
X191366666Y-66292380D01*
X191461904Y-66244761D01*
X191509523Y-66197142D01*
X190509523Y-65387619D02*
X190461904Y-65340000D01*
X190366666Y-65292380D01*
X190128571Y-65292380D01*
X190033333Y-65340000D01*
X189985714Y-65387619D01*
X189938095Y-65482857D01*
X189938095Y-65578095D01*
X189985714Y-65720952D01*
X190557142Y-66292380D01*
X189938095Y-66292380D01*
%TO.C,R7*%
X111952380Y-79323333D02*
X111476190Y-78990000D01*
X111952380Y-78751904D02*
X110952380Y-78751904D01*
X110952380Y-79132857D01*
X111000000Y-79228095D01*
X111047619Y-79275714D01*
X111142857Y-79323333D01*
X111285714Y-79323333D01*
X111380952Y-79275714D01*
X111428571Y-79228095D01*
X111476190Y-79132857D01*
X111476190Y-78751904D01*
X110952380Y-79656666D02*
X110952380Y-80323333D01*
X111952380Y-79894761D01*
%TO.C,R31*%
X167842857Y-66192380D02*
X168176190Y-65716190D01*
X168414285Y-66192380D02*
X168414285Y-65192380D01*
X168033333Y-65192380D01*
X167938095Y-65240000D01*
X167890476Y-65287619D01*
X167842857Y-65382857D01*
X167842857Y-65525714D01*
X167890476Y-65620952D01*
X167938095Y-65668571D01*
X168033333Y-65716190D01*
X168414285Y-65716190D01*
X167509523Y-65192380D02*
X166890476Y-65192380D01*
X167223809Y-65573333D01*
X167080952Y-65573333D01*
X166985714Y-65620952D01*
X166938095Y-65668571D01*
X166890476Y-65763809D01*
X166890476Y-66001904D01*
X166938095Y-66097142D01*
X166985714Y-66144761D01*
X167080952Y-66192380D01*
X167366666Y-66192380D01*
X167461904Y-66144761D01*
X167509523Y-66097142D01*
X165938095Y-66192380D02*
X166509523Y-66192380D01*
X166223809Y-66192380D02*
X166223809Y-65192380D01*
X166319047Y-65335238D01*
X166414285Y-65430476D01*
X166509523Y-65478095D01*
%TO.C,R24*%
X101442857Y-66192380D02*
X101776190Y-65716190D01*
X102014285Y-66192380D02*
X102014285Y-65192380D01*
X101633333Y-65192380D01*
X101538095Y-65240000D01*
X101490476Y-65287619D01*
X101442857Y-65382857D01*
X101442857Y-65525714D01*
X101490476Y-65620952D01*
X101538095Y-65668571D01*
X101633333Y-65716190D01*
X102014285Y-65716190D01*
X101061904Y-65287619D02*
X101014285Y-65240000D01*
X100919047Y-65192380D01*
X100680952Y-65192380D01*
X100585714Y-65240000D01*
X100538095Y-65287619D01*
X100490476Y-65382857D01*
X100490476Y-65478095D01*
X100538095Y-65620952D01*
X101109523Y-66192380D01*
X100490476Y-66192380D01*
X99633333Y-65525714D02*
X99633333Y-66192380D01*
X99871428Y-65144761D02*
X100109523Y-65859047D01*
X99490476Y-65859047D01*
%TO.C,R37*%
X145542857Y-70792380D02*
X145876190Y-70316190D01*
X146114285Y-70792380D02*
X146114285Y-69792380D01*
X145733333Y-69792380D01*
X145638095Y-69840000D01*
X145590476Y-69887619D01*
X145542857Y-69982857D01*
X145542857Y-70125714D01*
X145590476Y-70220952D01*
X145638095Y-70268571D01*
X145733333Y-70316190D01*
X146114285Y-70316190D01*
X145209523Y-69792380D02*
X144590476Y-69792380D01*
X144923809Y-70173333D01*
X144780952Y-70173333D01*
X144685714Y-70220952D01*
X144638095Y-70268571D01*
X144590476Y-70363809D01*
X144590476Y-70601904D01*
X144638095Y-70697142D01*
X144685714Y-70744761D01*
X144780952Y-70792380D01*
X145066666Y-70792380D01*
X145161904Y-70744761D01*
X145209523Y-70697142D01*
X144257142Y-69792380D02*
X143590476Y-69792380D01*
X144019047Y-70792380D01*
%TO.C,U4*%
X112807380Y-80513095D02*
X113616904Y-80513095D01*
X113712142Y-80560714D01*
X113759761Y-80608333D01*
X113807380Y-80703571D01*
X113807380Y-80894047D01*
X113759761Y-80989285D01*
X113712142Y-81036904D01*
X113616904Y-81084523D01*
X112807380Y-81084523D01*
X113140714Y-81989285D02*
X113807380Y-81989285D01*
X112759761Y-81751190D02*
X113474047Y-81513095D01*
X113474047Y-82132142D01*
%TO.C,R39*%
X173642857Y-70992380D02*
X173976190Y-70516190D01*
X174214285Y-70992380D02*
X174214285Y-69992380D01*
X173833333Y-69992380D01*
X173738095Y-70040000D01*
X173690476Y-70087619D01*
X173642857Y-70182857D01*
X173642857Y-70325714D01*
X173690476Y-70420952D01*
X173738095Y-70468571D01*
X173833333Y-70516190D01*
X174214285Y-70516190D01*
X173309523Y-69992380D02*
X172690476Y-69992380D01*
X173023809Y-70373333D01*
X172880952Y-70373333D01*
X172785714Y-70420952D01*
X172738095Y-70468571D01*
X172690476Y-70563809D01*
X172690476Y-70801904D01*
X172738095Y-70897142D01*
X172785714Y-70944761D01*
X172880952Y-70992380D01*
X173166666Y-70992380D01*
X173261904Y-70944761D01*
X173309523Y-70897142D01*
X172214285Y-70992380D02*
X172023809Y-70992380D01*
X171928571Y-70944761D01*
X171880952Y-70897142D01*
X171785714Y-70754285D01*
X171738095Y-70563809D01*
X171738095Y-70182857D01*
X171785714Y-70087619D01*
X171833333Y-70040000D01*
X171928571Y-69992380D01*
X172119047Y-69992380D01*
X172214285Y-70040000D01*
X172261904Y-70087619D01*
X172309523Y-70182857D01*
X172309523Y-70420952D01*
X172261904Y-70516190D01*
X172214285Y-70563809D01*
X172119047Y-70611428D01*
X171928571Y-70611428D01*
X171833333Y-70563809D01*
X171785714Y-70516190D01*
X171738095Y-70420952D01*
%TO.C,R34*%
X208542857Y-66192380D02*
X208876190Y-65716190D01*
X209114285Y-66192380D02*
X209114285Y-65192380D01*
X208733333Y-65192380D01*
X208638095Y-65240000D01*
X208590476Y-65287619D01*
X208542857Y-65382857D01*
X208542857Y-65525714D01*
X208590476Y-65620952D01*
X208638095Y-65668571D01*
X208733333Y-65716190D01*
X209114285Y-65716190D01*
X208209523Y-65192380D02*
X207590476Y-65192380D01*
X207923809Y-65573333D01*
X207780952Y-65573333D01*
X207685714Y-65620952D01*
X207638095Y-65668571D01*
X207590476Y-65763809D01*
X207590476Y-66001904D01*
X207638095Y-66097142D01*
X207685714Y-66144761D01*
X207780952Y-66192380D01*
X208066666Y-66192380D01*
X208161904Y-66144761D01*
X208209523Y-66097142D01*
X206733333Y-65525714D02*
X206733333Y-66192380D01*
X206971428Y-65144761D02*
X207209523Y-65859047D01*
X206590476Y-65859047D01*
%TO.C,R22*%
X83742857Y-66192380D02*
X84076190Y-65716190D01*
X84314285Y-66192380D02*
X84314285Y-65192380D01*
X83933333Y-65192380D01*
X83838095Y-65240000D01*
X83790476Y-65287619D01*
X83742857Y-65382857D01*
X83742857Y-65525714D01*
X83790476Y-65620952D01*
X83838095Y-65668571D01*
X83933333Y-65716190D01*
X84314285Y-65716190D01*
X83361904Y-65287619D02*
X83314285Y-65240000D01*
X83219047Y-65192380D01*
X82980952Y-65192380D01*
X82885714Y-65240000D01*
X82838095Y-65287619D01*
X82790476Y-65382857D01*
X82790476Y-65478095D01*
X82838095Y-65620952D01*
X83409523Y-66192380D01*
X82790476Y-66192380D01*
X82409523Y-65287619D02*
X82361904Y-65240000D01*
X82266666Y-65192380D01*
X82028571Y-65192380D01*
X81933333Y-65240000D01*
X81885714Y-65287619D01*
X81838095Y-65382857D01*
X81838095Y-65478095D01*
X81885714Y-65620952D01*
X82457142Y-66192380D01*
X81838095Y-66192380D01*
%TO.C,R60*%
X92042857Y-93392380D02*
X92376190Y-92916190D01*
X92614285Y-93392380D02*
X92614285Y-92392380D01*
X92233333Y-92392380D01*
X92138095Y-92440000D01*
X92090476Y-92487619D01*
X92042857Y-92582857D01*
X92042857Y-92725714D01*
X92090476Y-92820952D01*
X92138095Y-92868571D01*
X92233333Y-92916190D01*
X92614285Y-92916190D01*
X91185714Y-92392380D02*
X91376190Y-92392380D01*
X91471428Y-92440000D01*
X91519047Y-92487619D01*
X91614285Y-92630476D01*
X91661904Y-92820952D01*
X91661904Y-93201904D01*
X91614285Y-93297142D01*
X91566666Y-93344761D01*
X91471428Y-93392380D01*
X91280952Y-93392380D01*
X91185714Y-93344761D01*
X91138095Y-93297142D01*
X91090476Y-93201904D01*
X91090476Y-92963809D01*
X91138095Y-92868571D01*
X91185714Y-92820952D01*
X91280952Y-92773333D01*
X91471428Y-92773333D01*
X91566666Y-92820952D01*
X91614285Y-92868571D01*
X91661904Y-92963809D01*
X90471428Y-92392380D02*
X90376190Y-92392380D01*
X90280952Y-92440000D01*
X90233333Y-92487619D01*
X90185714Y-92582857D01*
X90138095Y-92773333D01*
X90138095Y-93011428D01*
X90185714Y-93201904D01*
X90233333Y-93297142D01*
X90280952Y-93344761D01*
X90376190Y-93392380D01*
X90471428Y-93392380D01*
X90566666Y-93344761D01*
X90614285Y-93297142D01*
X90661904Y-93201904D01*
X90709523Y-93011428D01*
X90709523Y-92773333D01*
X90661904Y-92582857D01*
X90614285Y-92487619D01*
X90566666Y-92440000D01*
X90471428Y-92392380D01*
%TO.C,R36*%
X65592857Y-70392380D02*
X65926190Y-69916190D01*
X66164285Y-70392380D02*
X66164285Y-69392380D01*
X65783333Y-69392380D01*
X65688095Y-69440000D01*
X65640476Y-69487619D01*
X65592857Y-69582857D01*
X65592857Y-69725714D01*
X65640476Y-69820952D01*
X65688095Y-69868571D01*
X65783333Y-69916190D01*
X66164285Y-69916190D01*
X65259523Y-69392380D02*
X64640476Y-69392380D01*
X64973809Y-69773333D01*
X64830952Y-69773333D01*
X64735714Y-69820952D01*
X64688095Y-69868571D01*
X64640476Y-69963809D01*
X64640476Y-70201904D01*
X64688095Y-70297142D01*
X64735714Y-70344761D01*
X64830952Y-70392380D01*
X65116666Y-70392380D01*
X65211904Y-70344761D01*
X65259523Y-70297142D01*
X63783333Y-69392380D02*
X63973809Y-69392380D01*
X64069047Y-69440000D01*
X64116666Y-69487619D01*
X64211904Y-69630476D01*
X64259523Y-69820952D01*
X64259523Y-70201904D01*
X64211904Y-70297142D01*
X64164285Y-70344761D01*
X64069047Y-70392380D01*
X63878571Y-70392380D01*
X63783333Y-70344761D01*
X63735714Y-70297142D01*
X63688095Y-70201904D01*
X63688095Y-69963809D01*
X63735714Y-69868571D01*
X63783333Y-69820952D01*
X63878571Y-69773333D01*
X64069047Y-69773333D01*
X64164285Y-69820952D01*
X64211904Y-69868571D01*
X64259523Y-69963809D01*
%TO.C,R21*%
X60042857Y-66192380D02*
X60376190Y-65716190D01*
X60614285Y-66192380D02*
X60614285Y-65192380D01*
X60233333Y-65192380D01*
X60138095Y-65240000D01*
X60090476Y-65287619D01*
X60042857Y-65382857D01*
X60042857Y-65525714D01*
X60090476Y-65620952D01*
X60138095Y-65668571D01*
X60233333Y-65716190D01*
X60614285Y-65716190D01*
X59661904Y-65287619D02*
X59614285Y-65240000D01*
X59519047Y-65192380D01*
X59280952Y-65192380D01*
X59185714Y-65240000D01*
X59138095Y-65287619D01*
X59090476Y-65382857D01*
X59090476Y-65478095D01*
X59138095Y-65620952D01*
X59709523Y-66192380D01*
X59090476Y-66192380D01*
X58138095Y-66192380D02*
X58709523Y-66192380D01*
X58423809Y-66192380D02*
X58423809Y-65192380D01*
X58519047Y-65335238D01*
X58614285Y-65430476D01*
X58709523Y-65478095D01*
%TO.C,R4*%
X157352380Y-94323333D02*
X156876190Y-93990000D01*
X157352380Y-93751904D02*
X156352380Y-93751904D01*
X156352380Y-94132857D01*
X156400000Y-94228095D01*
X156447619Y-94275714D01*
X156542857Y-94323333D01*
X156685714Y-94323333D01*
X156780952Y-94275714D01*
X156828571Y-94228095D01*
X156876190Y-94132857D01*
X156876190Y-93751904D01*
X156685714Y-95180476D02*
X157352380Y-95180476D01*
X156304761Y-94942380D02*
X157019047Y-94704285D01*
X157019047Y-95323333D01*
%TO.C,C4*%
X108557142Y-84723333D02*
X108604761Y-84675714D01*
X108652380Y-84532857D01*
X108652380Y-84437619D01*
X108604761Y-84294761D01*
X108509523Y-84199523D01*
X108414285Y-84151904D01*
X108223809Y-84104285D01*
X108080952Y-84104285D01*
X107890476Y-84151904D01*
X107795238Y-84199523D01*
X107700000Y-84294761D01*
X107652380Y-84437619D01*
X107652380Y-84532857D01*
X107700000Y-84675714D01*
X107747619Y-84723333D01*
X107985714Y-85580476D02*
X108652380Y-85580476D01*
X107604761Y-85342380D02*
X108319047Y-85104285D01*
X108319047Y-85723333D01*
%TO.C,R23*%
X78892857Y-66192380D02*
X79226190Y-65716190D01*
X79464285Y-66192380D02*
X79464285Y-65192380D01*
X79083333Y-65192380D01*
X78988095Y-65240000D01*
X78940476Y-65287619D01*
X78892857Y-65382857D01*
X78892857Y-65525714D01*
X78940476Y-65620952D01*
X78988095Y-65668571D01*
X79083333Y-65716190D01*
X79464285Y-65716190D01*
X78511904Y-65287619D02*
X78464285Y-65240000D01*
X78369047Y-65192380D01*
X78130952Y-65192380D01*
X78035714Y-65240000D01*
X77988095Y-65287619D01*
X77940476Y-65382857D01*
X77940476Y-65478095D01*
X77988095Y-65620952D01*
X78559523Y-66192380D01*
X77940476Y-66192380D01*
X77607142Y-65192380D02*
X76988095Y-65192380D01*
X77321428Y-65573333D01*
X77178571Y-65573333D01*
X77083333Y-65620952D01*
X77035714Y-65668571D01*
X76988095Y-65763809D01*
X76988095Y-66001904D01*
X77035714Y-66097142D01*
X77083333Y-66144761D01*
X77178571Y-66192380D01*
X77464285Y-66192380D01*
X77559523Y-66144761D01*
X77607142Y-66097142D01*
%TO.C,R35*%
X203892857Y-66192380D02*
X204226190Y-65716190D01*
X204464285Y-66192380D02*
X204464285Y-65192380D01*
X204083333Y-65192380D01*
X203988095Y-65240000D01*
X203940476Y-65287619D01*
X203892857Y-65382857D01*
X203892857Y-65525714D01*
X203940476Y-65620952D01*
X203988095Y-65668571D01*
X204083333Y-65716190D01*
X204464285Y-65716190D01*
X203559523Y-65192380D02*
X202940476Y-65192380D01*
X203273809Y-65573333D01*
X203130952Y-65573333D01*
X203035714Y-65620952D01*
X202988095Y-65668571D01*
X202940476Y-65763809D01*
X202940476Y-66001904D01*
X202988095Y-66097142D01*
X203035714Y-66144761D01*
X203130952Y-66192380D01*
X203416666Y-66192380D01*
X203511904Y-66144761D01*
X203559523Y-66097142D01*
X202035714Y-65192380D02*
X202511904Y-65192380D01*
X202559523Y-65668571D01*
X202511904Y-65620952D01*
X202416666Y-65573333D01*
X202178571Y-65573333D01*
X202083333Y-65620952D01*
X202035714Y-65668571D01*
X201988095Y-65763809D01*
X201988095Y-66001904D01*
X202035714Y-66097142D01*
X202083333Y-66144761D01*
X202178571Y-66192380D01*
X202416666Y-66192380D01*
X202511904Y-66144761D01*
X202559523Y-66097142D01*
%TO.C,R25*%
X95742857Y-66192380D02*
X96076190Y-65716190D01*
X96314285Y-66192380D02*
X96314285Y-65192380D01*
X95933333Y-65192380D01*
X95838095Y-65240000D01*
X95790476Y-65287619D01*
X95742857Y-65382857D01*
X95742857Y-65525714D01*
X95790476Y-65620952D01*
X95838095Y-65668571D01*
X95933333Y-65716190D01*
X96314285Y-65716190D01*
X95361904Y-65287619D02*
X95314285Y-65240000D01*
X95219047Y-65192380D01*
X94980952Y-65192380D01*
X94885714Y-65240000D01*
X94838095Y-65287619D01*
X94790476Y-65382857D01*
X94790476Y-65478095D01*
X94838095Y-65620952D01*
X95409523Y-66192380D01*
X94790476Y-66192380D01*
X93885714Y-65192380D02*
X94361904Y-65192380D01*
X94409523Y-65668571D01*
X94361904Y-65620952D01*
X94266666Y-65573333D01*
X94028571Y-65573333D01*
X93933333Y-65620952D01*
X93885714Y-65668571D01*
X93838095Y-65763809D01*
X93838095Y-66001904D01*
X93885714Y-66097142D01*
X93933333Y-66144761D01*
X94028571Y-66192380D01*
X94266666Y-66192380D01*
X94361904Y-66144761D01*
X94409523Y-66097142D01*
%TO.C,R26*%
X127842857Y-66292380D02*
X128176190Y-65816190D01*
X128414285Y-66292380D02*
X128414285Y-65292380D01*
X128033333Y-65292380D01*
X127938095Y-65340000D01*
X127890476Y-65387619D01*
X127842857Y-65482857D01*
X127842857Y-65625714D01*
X127890476Y-65720952D01*
X127938095Y-65768571D01*
X128033333Y-65816190D01*
X128414285Y-65816190D01*
X127461904Y-65387619D02*
X127414285Y-65340000D01*
X127319047Y-65292380D01*
X127080952Y-65292380D01*
X126985714Y-65340000D01*
X126938095Y-65387619D01*
X126890476Y-65482857D01*
X126890476Y-65578095D01*
X126938095Y-65720952D01*
X127509523Y-66292380D01*
X126890476Y-66292380D01*
X126033333Y-65292380D02*
X126223809Y-65292380D01*
X126319047Y-65340000D01*
X126366666Y-65387619D01*
X126461904Y-65530476D01*
X126509523Y-65720952D01*
X126509523Y-66101904D01*
X126461904Y-66197142D01*
X126414285Y-66244761D01*
X126319047Y-66292380D01*
X126128571Y-66292380D01*
X126033333Y-66244761D01*
X125985714Y-66197142D01*
X125938095Y-66101904D01*
X125938095Y-65863809D01*
X125985714Y-65768571D01*
X126033333Y-65720952D01*
X126128571Y-65673333D01*
X126319047Y-65673333D01*
X126414285Y-65720952D01*
X126461904Y-65768571D01*
X126509523Y-65863809D01*
%TO.C,U2*%
X147060000Y-78780000D02*
X147060000Y-73700000D01*
X144520000Y-78780000D02*
X147060000Y-78780000D01*
X147060000Y-86400000D02*
X144520000Y-86400000D01*
X147060000Y-91480000D02*
X147060000Y-86400000D01*
X144520000Y-86400000D02*
X144520000Y-78780000D01*
X177540000Y-91480000D02*
X147060000Y-91480000D01*
X147060000Y-73700000D02*
X177540000Y-73700000D01*
X177540000Y-73700000D02*
X177540000Y-91480000D01*
D12*
%TO.C,R6*%
X91172936Y-83425000D02*
X91627064Y-83425000D01*
X91172936Y-81955000D02*
X91627064Y-81955000D01*
%TO.C,R38*%
X82972936Y-68625000D02*
X83427064Y-68625000D01*
X82972936Y-67155000D02*
X83427064Y-67155000D01*
%TO.C,R2*%
X126365000Y-80962936D02*
X126365000Y-81417064D01*
X127835000Y-80962936D02*
X127835000Y-81417064D01*
%TO.C,R61*%
X160222936Y-64375000D02*
X160677064Y-64375000D01*
X160222936Y-62905000D02*
X160677064Y-62905000D01*
%TO.C,R3*%
X160465000Y-94817064D02*
X160465000Y-94362936D01*
X161935000Y-94817064D02*
X161935000Y-94362936D01*
%TO.C,R29*%
X138672936Y-64825000D02*
X139127064Y-64825000D01*
X138672936Y-63355000D02*
X139127064Y-63355000D01*
%TO.C,R5*%
X91272936Y-86155000D02*
X91727064Y-86155000D01*
X91272936Y-87625000D02*
X91727064Y-87625000D01*
%TO.C,R57*%
X190872936Y-69725000D02*
X191327064Y-69725000D01*
X190872936Y-68255000D02*
X191327064Y-68255000D01*
%TO.C,R20*%
X64872936Y-64825000D02*
X65327064Y-64825000D01*
X64872936Y-63355000D02*
X65327064Y-63355000D01*
%TO.C,R40*%
X100672936Y-69325000D02*
X101127064Y-69325000D01*
X100672936Y-67855000D02*
X101127064Y-67855000D01*
%TO.C,R59*%
X207572936Y-69625000D02*
X208027064Y-69625000D01*
X207572936Y-68155000D02*
X208027064Y-68155000D01*
%TO.C,R58*%
X126872936Y-69725000D02*
X127327064Y-69725000D01*
X126872936Y-68255000D02*
X127327064Y-68255000D01*
%TO.C,R27*%
X121272936Y-64925000D02*
X121727064Y-64925000D01*
X121272936Y-63455000D02*
X121727064Y-63455000D01*
%TO.C,R1*%
X106865000Y-101717064D02*
X106865000Y-101262936D01*
X108335000Y-101717064D02*
X108335000Y-101262936D01*
%TO.C,R33*%
X185072936Y-63455000D02*
X185527064Y-63455000D01*
X185072936Y-64925000D02*
X185527064Y-64925000D01*
%TO.C,R28*%
X144822936Y-63355000D02*
X145277064Y-63355000D01*
X144822936Y-64825000D02*
X145277064Y-64825000D01*
%TO.C,R30*%
X172722936Y-64825000D02*
X173177064Y-64825000D01*
X172722936Y-63355000D02*
X173177064Y-63355000D01*
%TO.C,R32*%
X190972936Y-64925000D02*
X191427064Y-64925000D01*
X190972936Y-63455000D02*
X191427064Y-63455000D01*
%TO.C,R7*%
X110585000Y-79717064D02*
X110585000Y-79262936D01*
X109115000Y-79717064D02*
X109115000Y-79262936D01*
%TO.C,R31*%
X166972936Y-64825000D02*
X167427064Y-64825000D01*
X166972936Y-63355000D02*
X167427064Y-63355000D01*
%TO.C,R24*%
X100572936Y-64825000D02*
X101027064Y-64825000D01*
X100572936Y-63355000D02*
X101027064Y-63355000D01*
%TO.C,R37*%
X144672936Y-67955000D02*
X145127064Y-67955000D01*
X144672936Y-69425000D02*
X145127064Y-69425000D01*
%TO.C,U4*%
X114195000Y-81275000D02*
X114195000Y-78965000D01*
X114195000Y-83585000D02*
X114470000Y-83585000D01*
X124115000Y-83585000D02*
X123840000Y-83585000D01*
X114195000Y-81275000D02*
X114195000Y-83585000D01*
X124115000Y-81275000D02*
X124115000Y-78965000D01*
X114470000Y-78965000D02*
X114470000Y-77675000D01*
X114195000Y-78965000D02*
X114470000Y-78965000D01*
X124115000Y-78965000D02*
X123840000Y-78965000D01*
X124115000Y-81275000D02*
X124115000Y-83585000D01*
%TO.C,R39*%
X172772936Y-68155000D02*
X173227064Y-68155000D01*
X172772936Y-69625000D02*
X173227064Y-69625000D01*
%TO.C,R34*%
X207672936Y-63355000D02*
X208127064Y-63355000D01*
X207672936Y-64825000D02*
X208127064Y-64825000D01*
%TO.C,R22*%
X82872936Y-63355000D02*
X83327064Y-63355000D01*
X82872936Y-64825000D02*
X83327064Y-64825000D01*
%TO.C,R60*%
X91172936Y-92025000D02*
X91627064Y-92025000D01*
X91172936Y-90555000D02*
X91627064Y-90555000D01*
%TO.C,R36*%
X64722936Y-69025000D02*
X65177064Y-69025000D01*
X64722936Y-67555000D02*
X65177064Y-67555000D01*
%TO.C,R21*%
X59172936Y-63355000D02*
X59627064Y-63355000D01*
X59172936Y-64825000D02*
X59627064Y-64825000D01*
%TO.C,R4*%
X157665000Y-94817064D02*
X157665000Y-94362936D01*
X159135000Y-94817064D02*
X159135000Y-94362936D01*
%TO.C,C4*%
X109140000Y-84178748D02*
X109140000Y-85601252D01*
X110960000Y-84178748D02*
X110960000Y-85601252D01*
%TO.C,R23*%
X78022936Y-63355000D02*
X78477064Y-63355000D01*
X78022936Y-64825000D02*
X78477064Y-64825000D01*
%TO.C,R35*%
X203022936Y-64825000D02*
X203477064Y-64825000D01*
X203022936Y-63355000D02*
X203477064Y-63355000D01*
%TO.C,R25*%
X94872936Y-64825000D02*
X95327064Y-64825000D01*
X94872936Y-63355000D02*
X95327064Y-63355000D01*
%TO.C,R26*%
X126972936Y-64925000D02*
X127427064Y-64925000D01*
X126972936Y-63455000D02*
X127427064Y-63455000D01*
%TD*%
%LPC*%
D13*
%TO.C,D5*%
X96300000Y-97400000D03*
D14*
X98840000Y-97400000D03*
%TD*%
D15*
%TO.C,C2*%
X87977651Y-96525000D03*
D16*
X84477651Y-96525000D03*
%TD*%
D17*
%TO.C,*%
X56750000Y-125550000D03*
%TD*%
D18*
%TO.C,J9*%
X191225000Y-43275000D03*
D19*
X186145000Y-43275000D03*
%TD*%
D18*
%TO.C,J6*%
X131000000Y-43300000D03*
D19*
X125920000Y-43300000D03*
%TD*%
D20*
%TO.C,J2*%
X67200000Y-124390000D03*
D19*
X72280000Y-124390000D03*
X77360000Y-124390000D03*
%TD*%
D21*
%TO.C,*%
X163500000Y-125550000D03*
%TD*%
D22*
%TO.C,HS5*%
X145415000Y-57717500D03*
%TD*%
D13*
%TO.C,D27*%
X213950000Y-68990000D03*
D14*
X213950000Y-66450000D03*
%TD*%
D21*
%TO.C,*%
X163500000Y-42100000D03*
%TD*%
D23*
%TO.C,Q1*%
X72925000Y-52775000D03*
D24*
X70385000Y-52775000D03*
X67845000Y-52775000D03*
%TD*%
D15*
%TO.C,C1*%
X93000000Y-104690000D03*
D16*
X89500000Y-104690000D03*
%TD*%
D20*
%TO.C,J1*%
X92200000Y-124390000D03*
D19*
X97280000Y-124390000D03*
%TD*%
D13*
%TO.C,D20*%
X71250000Y-68290000D03*
D14*
X71250000Y-65750000D03*
%TD*%
D13*
%TO.C,D4*%
X96325000Y-79490000D03*
D14*
X98865000Y-79490000D03*
%TD*%
D13*
%TO.C,D3*%
X96300000Y-86890000D03*
D14*
X98840000Y-86890000D03*
%TD*%
D25*
%TO.C,PS1*%
X116000000Y-113090000D03*
D26*
X116000000Y-110550000D03*
X116000000Y-108010000D03*
X116000000Y-105470000D03*
%TD*%
D18*
%TO.C,J3*%
X72925000Y-43175000D03*
D19*
X67845000Y-43175000D03*
%TD*%
D21*
%TO.C,*%
X110500000Y-42100000D03*
%TD*%
D22*
%TO.C,HS3*%
X105450000Y-57717500D03*
%TD*%
%TO.C,HS8*%
X207915000Y-57717500D03*
%TD*%
D23*
%TO.C,Q5*%
X148000000Y-52690000D03*
D24*
X145460000Y-52690000D03*
X142920000Y-52690000D03*
%TD*%
D13*
%TO.C,D21*%
X88675000Y-68225000D03*
D14*
X88675000Y-65685000D03*
%TD*%
D17*
%TO.C,REF\u002A\u002A*%
X56750000Y-42100000D03*
%TD*%
D23*
%TO.C,Q3*%
X108125000Y-52675000D03*
D24*
X105585000Y-52675000D03*
X103045000Y-52675000D03*
%TD*%
D13*
%TO.C,D24*%
X150775000Y-68775000D03*
D14*
X150775000Y-66235000D03*
%TD*%
D21*
%TO.C,*%
X110500000Y-125550000D03*
%TD*%
D18*
%TO.C,J4*%
X87925000Y-43275000D03*
D19*
X82845000Y-43275000D03*
%TD*%
D18*
%TO.C,J5*%
X103000000Y-43290000D03*
D19*
X97920000Y-43290000D03*
%TD*%
D23*
%TO.C,Q4*%
X131000000Y-52690000D03*
D24*
X128460000Y-52690000D03*
X125920000Y-52690000D03*
%TD*%
D23*
%TO.C,Q7*%
X193500000Y-52690000D03*
D24*
X190960000Y-52690000D03*
X188420000Y-52690000D03*
%TD*%
D13*
%TO.C,D23*%
X132800000Y-68925000D03*
D14*
X132800000Y-66385000D03*
%TD*%
D23*
%TO.C,Q2*%
X90525000Y-52675000D03*
D24*
X87985000Y-52675000D03*
X85445000Y-52675000D03*
%TD*%
D13*
%TO.C,D25*%
X178800000Y-68950000D03*
D14*
X178800000Y-66410000D03*
%TD*%
D13*
%TO.C,D26*%
X196825000Y-68925000D03*
D14*
X196825000Y-66385000D03*
%TD*%
D23*
%TO.C,Q8*%
X210500000Y-52690000D03*
D24*
X207960000Y-52690000D03*
X205420000Y-52690000D03*
%TD*%
D13*
%TO.C,D22*%
X106100000Y-68600000D03*
D14*
X106100000Y-66060000D03*
%TD*%
D13*
%TO.C,D2*%
X111925000Y-97290000D03*
D14*
X114465000Y-97290000D03*
%TD*%
D27*
%TO.C,U20*%
X159450000Y-56590000D03*
D28*
X159450000Y-57860000D03*
X159450000Y-59130000D03*
%TD*%
D22*
%TO.C,HS4*%
X128415000Y-57717500D03*
%TD*%
D18*
%TO.C,J7*%
X148000000Y-43267500D03*
D19*
X142920000Y-43267500D03*
%TD*%
D17*
%TO.C,REF\u002A\u002A*%
X217250000Y-42100000D03*
%TD*%
D29*
%TO.C,SW2*%
X208950000Y-91590000D03*
X208950000Y-98090000D03*
X213450000Y-98090000D03*
X213450000Y-91590000D03*
%TD*%
D18*
%TO.C,J10*%
X206225000Y-43275000D03*
D19*
X201145000Y-43275000D03*
%TD*%
D22*
%TO.C,HS7*%
X190815000Y-57717500D03*
%TD*%
D20*
%TO.C,J11*%
X171600000Y-124390000D03*
D19*
X176680000Y-124390000D03*
X181760000Y-124390000D03*
X186840000Y-124390000D03*
X191920000Y-124390000D03*
X197000000Y-124390000D03*
X202080000Y-124390000D03*
X207160000Y-124390000D03*
%TD*%
D22*
%TO.C,HS2*%
X88050000Y-57717500D03*
%TD*%
%TO.C,HS6*%
X173615000Y-57717500D03*
%TD*%
D23*
%TO.C,Q6*%
X176200000Y-52690000D03*
D24*
X173660000Y-52690000D03*
X171120000Y-52690000D03*
%TD*%
D18*
%TO.C,J8*%
X176200000Y-43290000D03*
D19*
X171120000Y-43290000D03*
%TD*%
D17*
%TO.C,REF\u002A\u002A*%
X217250000Y-125550000D03*
%TD*%
D20*
%TO.C,J12*%
X119500000Y-124390000D03*
D19*
X124580000Y-124390000D03*
X129660000Y-124390000D03*
X134740000Y-124390000D03*
X139820000Y-124390000D03*
X144900000Y-124390000D03*
X149980000Y-124390000D03*
X155060000Y-124390000D03*
%TD*%
D29*
%TO.C,SW1*%
X208950000Y-79790000D03*
X208950000Y-86290000D03*
X213450000Y-79790000D03*
X213450000Y-86290000D03*
%TD*%
D30*
%TO.C,U3*%
X100100000Y-115400000D03*
D31*
X100100000Y-112860000D03*
X100100000Y-110320000D03*
X100100000Y-107780000D03*
%TD*%
D32*
%TO.C,U1*%
X75955000Y-73435000D03*
X73415000Y-73435000D03*
X70875000Y-73435000D03*
X68335000Y-73435000D03*
D33*
X77235000Y-113435000D03*
X72155000Y-113435000D03*
X67075000Y-113435000D03*
%TD*%
D22*
%TO.C,HS1*%
X70250000Y-57762500D03*
%TD*%
D13*
%TO.C,U2*%
X148330000Y-90210000D03*
D14*
X150870000Y-90210000D03*
X153410000Y-90210000D03*
X155950000Y-90210000D03*
X158490000Y-90210000D03*
X161030000Y-90210000D03*
X163570000Y-90210000D03*
X166110000Y-90210000D03*
X168650000Y-90210000D03*
X171190000Y-90210000D03*
X173730000Y-90210000D03*
X176270000Y-90210000D03*
X176270000Y-74970000D03*
X173730000Y-74970000D03*
X171190000Y-74970000D03*
X168650000Y-74970000D03*
X166110000Y-74970000D03*
X163570000Y-74970000D03*
X161030000Y-74970000D03*
X158490000Y-74970000D03*
X155950000Y-74970000D03*
X153410000Y-74970000D03*
X150870000Y-74970000D03*
X148330000Y-74970000D03*
%TD*%
D34*
%TO.C,R6*%
X90400000Y-82690000D03*
X92400000Y-82690000D03*
%TD*%
%TO.C,R38*%
X82200000Y-67890000D03*
X84200000Y-67890000D03*
%TD*%
D35*
%TO.C,R2*%
X127100000Y-80190000D03*
X127100000Y-82190000D03*
%TD*%
D34*
%TO.C,R61*%
X159450000Y-63640000D03*
X161450000Y-63640000D03*
%TD*%
D36*
%TO.C,R3*%
X161200000Y-95590000D03*
X161200000Y-93590000D03*
%TD*%
D34*
%TO.C,R29*%
X137900000Y-64090000D03*
X139900000Y-64090000D03*
%TD*%
%TO.C,R5*%
X90500000Y-86890000D03*
X92500000Y-86890000D03*
%TD*%
%TO.C,R57*%
X190100000Y-68990000D03*
X192100000Y-68990000D03*
%TD*%
%TO.C,R20*%
X64100000Y-64090000D03*
X66100000Y-64090000D03*
%TD*%
%TO.C,R40*%
X99900000Y-68590000D03*
X101900000Y-68590000D03*
%TD*%
%TO.C,R59*%
X206800000Y-68890000D03*
X208800000Y-68890000D03*
%TD*%
%TO.C,R58*%
X126100000Y-68990000D03*
X128100000Y-68990000D03*
%TD*%
%TO.C,R27*%
X120500000Y-64190000D03*
X122500000Y-64190000D03*
%TD*%
D36*
%TO.C,R1*%
X107600000Y-102490000D03*
X107600000Y-100490000D03*
%TD*%
D34*
%TO.C,R33*%
X184300000Y-64190000D03*
X186300000Y-64190000D03*
%TD*%
%TO.C,R28*%
X144050000Y-64090000D03*
X146050000Y-64090000D03*
%TD*%
%TO.C,R30*%
X171950000Y-64090000D03*
X173950000Y-64090000D03*
%TD*%
%TO.C,R32*%
X190200000Y-64190000D03*
X192200000Y-64190000D03*
%TD*%
D36*
%TO.C,R7*%
X109850000Y-80490000D03*
X109850000Y-78490000D03*
%TD*%
D34*
%TO.C,R31*%
X166200000Y-64090000D03*
X168200000Y-64090000D03*
%TD*%
%TO.C,R24*%
X99800000Y-64090000D03*
X101800000Y-64090000D03*
%TD*%
%TO.C,R37*%
X143900000Y-68690000D03*
X145900000Y-68690000D03*
%TD*%
D37*
%TO.C,U4*%
X114930000Y-78412500D03*
X115580000Y-78412500D03*
X116230000Y-78412500D03*
X116880000Y-78412500D03*
X117530000Y-78412500D03*
X118180000Y-78412500D03*
X118830000Y-78412500D03*
X119480000Y-78412500D03*
X120130000Y-78412500D03*
X120780000Y-78412500D03*
X121430000Y-78412500D03*
X122080000Y-78412500D03*
X122730000Y-78412500D03*
X123380000Y-78412500D03*
X123380000Y-84137500D03*
X122730000Y-84137500D03*
X122080000Y-84137500D03*
X121430000Y-84137500D03*
X120780000Y-84137500D03*
X120130000Y-84137500D03*
X119480000Y-84137500D03*
X118830000Y-84137500D03*
X118180000Y-84137500D03*
X117530000Y-84137500D03*
X116880000Y-84137500D03*
X116230000Y-84137500D03*
X115580000Y-84137500D03*
X114930000Y-84137500D03*
%TD*%
D34*
%TO.C,R39*%
X172000000Y-68890000D03*
X174000000Y-68890000D03*
%TD*%
%TO.C,R34*%
X206900000Y-64090000D03*
X208900000Y-64090000D03*
%TD*%
%TO.C,R22*%
X82100000Y-64090000D03*
X84100000Y-64090000D03*
%TD*%
%TO.C,R60*%
X90400000Y-91290000D03*
X92400000Y-91290000D03*
%TD*%
%TO.C,R36*%
X63950000Y-68290000D03*
X65950000Y-68290000D03*
%TD*%
%TO.C,R21*%
X58400000Y-64090000D03*
X60400000Y-64090000D03*
%TD*%
D36*
%TO.C,R4*%
X158400000Y-95590000D03*
X158400000Y-93590000D03*
%TD*%
D38*
%TO.C,C4*%
X110050000Y-83327500D03*
X110050000Y-86452500D03*
%TD*%
D34*
%TO.C,R23*%
X77250000Y-64090000D03*
X79250000Y-64090000D03*
%TD*%
%TO.C,R35*%
X202250000Y-64090000D03*
X204250000Y-64090000D03*
%TD*%
%TO.C,R25*%
X94100000Y-64090000D03*
X96100000Y-64090000D03*
%TD*%
%TO.C,R26*%
X126200000Y-64190000D03*
X128200000Y-64190000D03*
%TD*%
M02*
